<svg width="210" height="101" viewBox="0 0 210 101" fill="none" xmlns="http://www.w3.org/2000/svg">
<g clip-path="url(#clip0_3350_1599)">
<path d="M35.4979 5.74049L51.0391 32.9823C51.6714 34.0957 53.2724 34.0957 53.9149 32.9823L61.3795 19.9079C61.5631 19.5912 61.5631 19.2031 61.3795 18.8762L52.0181 2.4821C51.3859 1.37894 52.1813 0 53.456 0H83.2739C83.59 0 83.794 0.34729 83.6308 0.623079L44.3087 69.5396C43.2787 71.3476 40.6783 71.3476 39.6382 69.5396L0.326273 0.623079C0.173308 0.34729 0.367063 0 0.68319 0H25.6266C29.7057 0 33.4788 2.18588 35.4979 5.74049Z" fill="url(#paint0_linear_3350_1599)"/>
<path d="M161.592 5.74049L177.133 32.9823C177.765 34.0957 179.366 34.0957 180.009 32.9823L187.473 19.9079C187.657 19.5912 187.657 19.2031 187.473 18.8762L178.112 2.47189C177.48 1.37894 178.275 0 179.54 0H209.358C209.674 0 209.878 0.34729 209.715 0.623079L170.392 69.5396C169.362 71.3476 166.762 71.3476 165.722 69.5396L126.41 0.623079C126.257 0.34729 126.451 0 126.767 0H151.71C155.789 0 159.563 2.18588 161.582 5.74049H161.592Z" fill="url(#paint1_linear_3350_1599)"/>
<path d="M136.73 29.6626L124.115 36.8842C125.227 36.2509 125.227 34.6473 124.115 34.0038L83.9571 11.0214C82.2031 10.0101 79.9698 10.3472 78.6135 11.8487C85.089 4.57607 94.5218 -0.0101929 105.025 -0.0101929C120.791 -0.0101929 134.14 10.3064 138.718 24.5759V24.5963C139.33 26.537 138.494 28.6412 136.72 29.6524L136.73 29.6626Z" fill="url(#paint2_linear_3350_1599)"/>
<path d="M96.9591 52.4305L84.4466 59.5908C82.7538 60.5612 82.6212 62.9514 84.1917 64.0954C75.3707 57.6501 69.6396 47.211 69.6396 35.444C69.6396 26.3838 73.0355 18.1204 78.6136 11.8487C79.9699 10.3472 82.2031 10.0101 83.9571 11.0213L96.9591 18.4676C95.8578 17.8344 94.4811 18.6311 94.4811 19.9079V51.0005C94.4811 52.2671 95.8578 53.074 96.9591 52.4407V52.4305Z" fill="url(#paint3_linear_3350_1599)"/>
<path d="M140.411 35.444C140.411 55.025 124.564 70.8982 105.025 70.8982C97.2345 70.8982 90.035 68.3752 84.1917 64.1056C82.6213 62.9616 82.764 60.5612 84.4466 59.601L136.74 29.6728C138.504 28.6616 139.341 26.5574 138.739 24.6167C139.83 28.0385 140.421 31.6748 140.421 35.4542L140.411 35.444Z" fill="url(#paint4_linear_3350_1599)"/>
<path d="M94.4915 50.9903V19.8976C94.4915 18.6208 95.8681 17.8241 96.9695 18.4574L124.126 34.0037C125.237 34.637 125.237 36.2407 124.126 36.8842L96.9695 52.4305C95.8681 53.0638 94.4915 52.2671 94.4915 50.9903Z" fill="white"/>
<path d="M97.1733 20.9701L121.841 35.0864C122.117 35.2499 122.117 35.6482 121.841 35.8015L97.1733 49.9178C96.898 50.071 96.5513 49.8769 96.5513 49.5602V21.3276C96.5513 21.011 96.898 20.8067 97.1733 20.9701Z" fill="#EE4034"/>
<path d="M9.26966 84.1973V86.9449H6.0574V96.6997H3.20206V86.9449H0V84.1973H9.26966Z" fill="#EE4034"/>
<path d="M13.002 84.1973H15.8573V96.6997H13.002V84.1973Z" fill="#EE4034"/>
<path d="M23.3219 93.952H28.3188V96.6997H20.4768V84.1973H28.2372V86.945H23.3321V89.0185H27.7885V91.7355H23.3321V93.952H23.3219ZM24.2703 82.3791L23.6789 83.3086H21.2722L23.0364 80.8061H25.4838L27.248 83.3086H24.8414L24.2703 82.3791ZM27.6967 79.182H30.6744L28.7471 81.5007H26.3608L27.6967 79.182Z" fill="#EE4034"/>
<path d="M39.3527 84.1973H42.2081V96.6997H40.0666L35.2533 89.9173V96.6997H32.3979V84.1973H34.5395L39.3527 90.9796V84.1973Z" fill="#EE4034"/>
<path d="M59.1769 89.7335V90.806C59.1769 92.6855 58.5855 94.1665 57.4331 95.2901C56.2706 96.3933 54.8123 96.9551 53.0278 96.9551C51.08 96.9551 49.479 96.332 48.1941 95.0756C46.9296 93.8295 46.2871 92.2871 46.2871 90.4689C46.2871 88.6508 46.9092 87.1084 48.1737 85.8418C49.4382 84.5752 50.9882 83.9521 52.8238 83.9521C55.1591 83.9521 57.2088 85.0962 58.2795 86.8122L55.8525 88.2013C55.3018 87.3433 54.1597 86.7407 52.8034 86.7407C51.753 86.7407 50.8557 87.0982 50.1622 87.7928C49.4688 88.4873 49.1323 89.3964 49.1323 90.4894C49.1323 91.5823 49.4892 92.4505 50.203 93.1553C50.9168 93.8295 51.8652 94.1768 53.0583 94.1768C54.7206 94.1768 55.7709 93.5333 56.2502 92.2462H52.9156V89.7437H59.1769V89.7335Z" fill="#EE4034"/>
<path d="M77.1552 84.1973H80.0106V96.6997H77.8691L73.0558 89.9173V96.6997H70.2004V84.1973H72.342L77.1552 90.9796V84.1973Z" fill="#EE4034"/>
<path d="M95.1747 95.0756C93.9102 96.3218 92.3703 96.955 90.5755 96.955C88.7808 96.955 87.2409 96.332 85.9764 95.0756C84.7119 93.8294 84.0898 92.2871 84.0898 90.4485C84.0898 88.6099 84.7119 87.0777 85.9764 85.8213C87.2409 84.5752 88.7808 83.9419 90.5755 83.9419C92.3703 83.9419 93.9102 84.565 95.1747 85.8213C96.4392 87.0675 97.0612 88.6099 97.0612 90.4485C97.0612 92.2871 96.4392 93.8192 95.1747 95.0756ZM87.9751 93.1246C88.6686 93.8192 89.5456 94.1563 90.5755 94.1563C91.6055 94.1563 92.4621 93.8192 93.1657 93.1246C93.8592 92.4301 94.2161 91.5312 94.2161 90.4485C94.2161 89.3657 93.8592 88.4669 93.1657 87.7723C92.4723 87.0777 91.6157 86.7406 90.5755 86.7406C89.5354 86.7406 88.6686 87.0777 87.9751 87.7723C87.2817 88.4669 86.9452 89.3657 86.9452 90.4485C86.9452 91.5312 87.2817 92.4301 87.9751 93.1246ZM89.5762 82.9409H92.146L94.2161 80.4384H91.0038L89.5762 82.9409Z" fill="#EE4034"/>
<path d="M101.15 84.1973H104.006V96.6997H101.15V84.1973Z" fill="#EE4034"/>
<path d="M118.558 96.6997L114.489 84.1973H117.609L120.373 93.3902L123.137 84.1973H126.257L122.188 96.6997H118.548H118.558Z" fill="#EE4034"/>
<path d="M129.806 84.1973H132.661V96.6997H129.806V84.1973Z" fill="#EE4034"/>
<path d="M140.126 93.9521H145.123V96.6998H137.281V84.1973H145.041V86.945H140.136V89.0185H144.592V91.7356H140.136V93.9521H140.126ZM141.074 82.3792L140.483 83.3087H138.076L139.84 80.8062H142.288L144.052 83.3087H141.645L141.074 82.3792ZM139.861 100.561C139.259 99.9377 139.259 98.9878 139.861 98.3851C140.503 97.7825 141.462 97.7825 142.094 98.3851C142.716 98.9878 142.716 99.9377 142.094 100.561C141.472 101.153 140.503 101.153 139.861 100.561Z" fill="#EE4034"/>
<path d="M157.584 84.1973V86.9449H154.372V96.6997H151.516V86.9449H148.304V84.1973H157.574H157.584Z" fill="#EE4034"/>
<path d="M175.196 84.1973H178.051V96.6997H175.909L171.096 89.9173V96.6997H168.241V84.1973H170.382L175.196 90.9796V84.1973Z" fill="#EE4034"/>
<path d="M190.604 96.6997L189.982 94.7385H185.342L184.72 96.6997H181.6L185.842 84.1973H189.482L193.725 96.6997H190.604ZM186.199 92.0521H189.125L187.667 87.4659L186.209 92.0521H186.199Z" fill="#EE4034"/>
<path d="M210 84.1973V96.6997H207.145V89.427L203.922 94.7283H203.606L200.384 89.427V96.6997H197.528V84.1973H200.384L203.769 89.7539L207.155 84.1973H210.01H210Z" fill="#EE4034"/>
</g>
<defs>
<linearGradient id="paint0_linear_3350_1599" x1="0.591411" y1="35.444" x2="82.3663" y2="35.444" gradientUnits="userSpaceOnUse">
<stop stop-color="#CD1627"/>
<stop offset="0.13" stop-color="#D6212A"/>
<stop offset="0.38" stop-color="#E3322F"/>
<stop offset="0.66" stop-color="#EB3C33"/>
<stop offset="1" stop-color="#EE4034"/>
</linearGradient>
<linearGradient id="paint1_linear_3350_1599" x1="126.359" y1="0" x2="209.358" y2="0" gradientUnits="userSpaceOnUse">
<stop stop-color="#CD1627"/>
<stop offset="0.13" stop-color="#D6212A"/>
<stop offset="0.38" stop-color="#E3322F"/>
<stop offset="0.66" stop-color="#EB3C33"/>
<stop offset="1" stop-color="#EE4034"/>
</linearGradient>
<linearGradient id="paint2_linear_3350_1599" x1="86.7003" y1="0.0919512" x2="132.179" y2="26.717" gradientUnits="userSpaceOnUse">
<stop stop-color="#09446D"/>
<stop offset="0.1" stop-color="#084977"/>
<stop offset="0.48" stop-color="#075B98"/>
<stop offset="0.79" stop-color="#0666AC"/>
<stop offset="1" stop-color="#066AB4"/>
</linearGradient>
<linearGradient id="paint3_linear_3350_1599" x1="83.2943" y1="63.9217" x2="83.2943" y2="10.5208" gradientUnits="userSpaceOnUse">
<stop stop-color="#09446D"/>
<stop offset="0.1" stop-color="#084977"/>
<stop offset="0.48" stop-color="#075B98"/>
<stop offset="0.79" stop-color="#0666AC"/>
<stop offset="1" stop-color="#066AB4"/>
</linearGradient>
<linearGradient id="paint4_linear_3350_1599" x1="142.002" y1="38.9577" x2="90.1464" y2="68.3939" gradientUnits="userSpaceOnUse">
<stop stop-color="#09446D"/>
<stop offset="0.1" stop-color="#084977"/>
<stop offset="0.48" stop-color="#075B98"/>
<stop offset="0.79" stop-color="#0666AC"/>
<stop offset="1" stop-color="#066AB4"/>
</linearGradient>
<clipPath id="clip0_3350_1599">
<rect width="210" height="101" fill="white"/>
</clipPath>
</defs>
</svg>
