<svg width="86" height="40" viewBox="0 0 86 40" fill="none" xmlns="http://www.w3.org/2000/svg">
<path d="M3.78442 33.1377V34.2594H2.47299V38.2419H1.30727V34.2594H0V33.1377H3.78442Z" fill="white"/>
<path d="M5.30786 33.1377H6.47356V38.2419H5.30786V33.1377Z" fill="white"/>
<path d="M9.52091 37.1203H11.5609V38.2421H8.35938V33.1379H11.5276V34.2596H9.52508V35.1062H11.3444V36.2154H9.52508V37.1203H9.52091ZM9.9081 32.3956L9.66666 32.7751H8.6841L9.40435 31.7534H10.4035L11.1238 32.7751H10.1413L9.9081 32.3956ZM11.307 31.0903H12.5226L11.7358 32.037H10.7616L11.307 31.0903Z" fill="white"/>
<path d="M16.0657 33.1377H17.2314V38.2419H16.3571L14.3921 35.4729V38.2419H13.2263V33.1377H14.1006L16.0657 35.9066V33.1377Z" fill="white"/>
<path d="M24.1591 35.3979V35.8358C24.1591 36.6031 23.9177 37.2077 23.4472 37.6664C22.9726 38.1168 22.3772 38.3462 21.6487 38.3462C20.8535 38.3462 20.1998 38.0918 19.6753 37.5789C19.159 37.0701 18.8967 36.4404 18.8967 35.6981C18.8967 34.9559 19.1507 34.3262 19.6669 33.8091C20.1832 33.292 20.816 33.0376 21.5654 33.0376C22.5188 33.0376 23.3556 33.5047 23.7927 34.2053L22.8019 34.7724C22.5771 34.4221 22.1108 34.1761 21.5571 34.1761C21.1282 34.1761 20.7619 34.322 20.4788 34.6056C20.1957 34.8891 20.0583 35.2603 20.0583 35.7065C20.0583 36.1527 20.204 36.5071 20.4954 36.7949C20.7868 37.0701 21.174 37.2119 21.6611 37.2119C22.3398 37.2119 22.7686 36.9492 22.9642 36.4237H21.6029V35.4021H24.1591V35.3979Z" fill="white"/>
<path d="M31.499 33.1377H32.6648V38.2419H31.7905L29.8254 35.4729V38.2419H28.6597V33.1377H29.534L31.499 35.9066V33.1377Z" fill="white"/>
<path d="M38.8553 37.5798C38.3391 38.0885 37.7104 38.3471 36.9777 38.3471C36.245 38.3471 35.6163 38.0927 35.1001 37.5798C34.5838 37.071 34.3298 36.4413 34.3298 35.6907C34.3298 34.9401 34.5838 34.3146 35.1001 33.8016C35.6163 33.2929 36.245 33.0343 36.9777 33.0343C37.7104 33.0343 38.3391 33.2887 38.8553 33.8016C39.3716 34.3104 39.6255 34.9401 39.6255 35.6907C39.6255 36.4413 39.3716 37.0668 38.8553 37.5798ZM35.916 36.7833C36.1992 37.0668 36.5572 37.2045 36.9777 37.2045C37.3982 37.2045 37.7479 37.0668 38.0352 36.7833C38.3183 36.4997 38.464 36.1327 38.464 35.6907C38.464 35.2487 38.3183 34.8817 38.0352 34.5981C37.7521 34.3146 37.4023 34.1769 36.9777 34.1769C36.553 34.1769 36.1992 34.3146 35.916 34.5981C35.633 34.8817 35.4956 35.2487 35.4956 35.6907C35.4956 36.1327 35.633 36.4997 35.916 36.7833ZM36.5697 32.6257H37.6189L38.464 31.604H37.1525L36.5697 32.6257Z" fill="white"/>
<path d="M41.2949 33.1377H42.4609V38.2419H41.2949V33.1377Z" fill="white"/>
<path d="M48.4024 38.2419L46.7412 33.1377H48.015L49.1434 36.8908L50.2718 33.1377H51.5456L49.8844 38.2419H48.3983H48.4024Z" fill="white"/>
<path d="M52.9939 33.1377H54.1595V38.2419H52.9939V33.1377Z" fill="white"/>
<path d="M57.2072 37.1213H59.2472V38.2431H56.0457V33.1388H59.2137V34.2606H57.2112V35.1071H59.0304V36.2164H57.2112V37.1213H57.2072ZM57.5942 32.3966L57.3529 32.7761H56.3702L57.0904 31.7544H58.0898L58.81 32.7761H57.8273L57.5942 32.3966ZM57.099 39.8195C56.8532 39.565 56.8532 39.1772 57.099 38.9311C57.3611 38.6851 57.7526 38.6851 58.0106 38.9311C58.2645 39.1772 58.2645 39.565 58.0106 39.8195C57.7567 40.0612 57.3611 40.0612 57.099 39.8195Z" fill="white"/>
<path d="M64.3348 33.1377V34.2594H63.0235V38.2419H61.8575V34.2594H60.5461V33.1377H64.3307H64.3348Z" fill="white"/>
<path d="M71.525 33.1377H72.6906V38.2419H71.8161L69.8511 35.4729V38.2419H68.6855V33.1377H69.5596L71.525 35.9066V33.1377Z" fill="white"/>
<path d="M77.8154 38.2419L77.5614 37.4412H75.6671L75.4132 38.2419H74.1394L75.8712 33.1377H77.3573L79.0895 38.2419H77.8154ZM76.017 36.3445H77.2115L76.6163 34.4721L76.0211 36.3445H76.017Z" fill="white"/>
<path d="M85.7344 33.1377V38.2419H84.5688V35.2728L83.253 37.4371H83.124L81.8086 35.2728V38.2419H80.6426V33.1377H81.8086L83.1905 35.4062L84.5729 33.1377H85.7385H85.7344Z" fill="white"/>
<path d="M15.1117 2.23343L21.1742 12.7925C21.4185 13.2237 22.0514 13.2237 22.2957 12.7925L25.2048 7.72854C25.2714 7.60692 25.2714 7.45213 25.2048 7.33051L21.5517 0.972978C21.3075 0.541772 21.6184 0.0110563 22.1069 0.0110563H33.7323C33.8545 0.0110563 33.9322 0.143735 33.8767 0.254301L18.5538 26.967C18.154 27.6635 17.1325 27.6635 16.7328 26.967L1.3988 0.243244C1.33218 0.132679 1.4099 0 1.54315 0H11.2698C12.8577 0.0110566 14.3233 0.851356 15.1117 2.23343Z" fill="white"/>
<path d="M64.2779 2.23343L70.3405 12.7925C70.5848 13.2237 71.2177 13.2237 71.4619 12.7925L74.3711 7.72854C74.4377 7.60692 74.4377 7.45213 74.3711 7.33051L70.718 0.972978C70.4737 0.541772 70.7846 0.0110563 71.2732 0.0110563H82.8986C83.0207 0.0110563 83.0985 0.143735 83.0429 0.254301L67.7089 26.967C67.3092 27.6635 66.2877 27.6635 65.888 26.967L50.5651 0.243244C50.4984 0.132679 50.5762 0 50.7094 0H60.4361C62.0239 0.0110566 63.4896 0.851356 64.2779 2.23343Z" fill="white"/>
<path d="M54.1768 11.3271L49.352 14.0799C49.7768 13.8406 49.7768 13.2203 49.352 12.981L33.9955 4.21092C33.3203 3.83009 32.4708 3.96066 31.948 4.52647C34.4312 1.75183 38.0361 0 42.0441 0C48.0669 0 53.1857 3.9389 54.9283 9.37937V9.39025C55.1788 10.1302 54.852 10.9353 54.1768 11.3271Z" fill="white"/>
<path d="M38.6533 20.2482L33.8594 22.9856C33.2166 23.3564 33.1621 24.2726 33.7613 24.7088C30.3838 22.244 28.4141 18.4502 28.4141 13.946C28.4141 10.4779 29.7106 7.32604 31.8461 4.9267C32.369 4.34868 33.2188 4.22871 33.8943 4.61042L38.8735 7.45691C38.4485 7.21698 37.9256 7.52235 37.9256 8.00221L37.7054 19.692C37.7163 20.1828 38.2392 20.4882 38.6533 20.2482Z" fill="white"/>
<path d="M55.8177 13.9245C55.8177 21.4107 49.7077 27.4891 42.1582 27.4891C39.1471 27.4891 36.5623 26.569 34.2985 24.932C33.6941 24.4955 33.749 23.5789 34.3974 23.2078L54.3891 11.7201C55.0704 11.3382 55.3891 10.5306 55.1583 9.78857C55.5979 11.0872 55.8177 12.484 55.8177 13.9245Z" fill="white"/>
</svg>
