<svg xmlns="http://www.w3.org/2000/svg" version="1.1" width="2172" height="526">
  <path d="M0 0 C0 19.14 0 38.28 0 58 C6.6 58 13.2 58 20 58 C20 72.19 20 86.38 20 101 C13.4 101 6.8 101 0 101 C0.0818497 136.25415547 0.17383572 171.50826762 0.28005161 206.76235821 C0.29257108 210.92067348 0.30500376 215.078989 0.31738281 219.23730469 C0.31984881 220.06518036 0.3223148 220.89305603 0.32485552 221.74601884 C0.36462227 235.16593233 0.39735224 248.58585428 0.42749982 262.00579242 C0.45857026 275.7671186 0.49716062 289.52840874 0.54279006 303.28969443 C0.57072649 311.78699528 0.59273707 320.28426965 0.60726251 328.78160419 C0.61777242 334.60177581 0.63556036 340.42189627 0.65916704 346.24202941 C0.67258643 349.60425291 0.68162969 352.96634037 0.68421364 356.32859993 C0.68751217 359.96700111 0.70292381 363.60514952 0.7215271 367.24349976 C0.718625 368.85145025 0.718625 368.85145025 0.71566427 370.49188459 C0.72312976 371.46076726 0.73059525 372.42964993 0.73828697 373.42789268 C0.74056529 374.2685935 0.74284362 375.10929431 0.74519098 375.9754709 C0.81839158 378.22723916 0.81839158 378.22723916 3 380 C5.97 380.66 8.94 381.32 12 382 C12 394.21 12 406.42 12 419 C1.30012323 421.91814821 -6.88268483 423.20104813 -17.75 423.25 C-18.87921875 423.270625 -20.0084375 423.29125 -21.171875 423.3125 C-32.18915347 423.36350592 -41.50534385 421.33400016 -50 414 C-61.36253558 402.09908992 -58.41737751 379.66161573 -58.34819686 364.74154866 C-58.33510726 361.19372304 -58.33963498 357.64591124 -58.34190369 354.09806824 C-58.34346835 347.96774903 -58.33414427 341.83752643 -58.31719017 335.70723152 C-58.29269426 326.84413008 -58.28498413 317.98107484 -58.2812262 309.11794322 C-58.27467822 294.73428275 -58.25476222 280.35067364 -58.22631836 265.96704102 C-58.19873479 252.00382746 -58.17752231 238.04062792 -58.16479492 224.07739258 C-58.16361267 222.78396078 -58.16361267 222.78396078 -58.16240653 221.46439905 C-58.1584911 217.13807799 -58.15470005 212.81175683 -58.15097082 208.48543561 C-58.11992648 172.65692012 -58.06691131 136.82846566 -58 101 C-63.94 101.33 -69.88 101.66 -76 102 C-75.67475342 104.39757568 -75.34950684 106.79515137 -75.0144043 109.26538086 C-73.4925054 122.05747903 -73.73085411 134.89229258 -73.76953125 147.75390625 C-73.7707257 150.39379351 -73.77117565 153.03368121 -73.7709198 155.67356873 C-73.77184815 161.16415843 -73.7804305 166.65469189 -73.79418945 172.14526367 C-73.81003995 178.49401762 -73.81518256 184.84271079 -73.8144539 191.19148308 C-73.81384496 197.32645065 -73.81903983 203.4613953 -73.82724571 209.59635735 C-73.8304339 212.19961363 -73.83240014 214.8028717 -73.83313942 217.40612984 C-73.83529333 221.02021515 -73.84401261 224.63422233 -73.85473633 228.24829102 C-73.85428314 229.32915482 -73.85382996 230.41001862 -73.85336304 231.52363586 C-73.85762802 232.50028198 -73.86189301 233.4769281 -73.86628723 234.48316956 C-73.86796308 235.33641595 -73.86963892 236.18966234 -73.87136555 237.06876469 C-74 239 -74 239 -75 240 C-77.40348286 240.09496708 -79.77810982 240.12558862 -82.18188477 240.11352539 C-83.3086412 240.11374443 -83.3086412 240.11374443 -84.4581604 240.1139679 C-86.95260459 240.11326863 -89.44697503 240.10547564 -91.94140625 240.09765625 C-93.66633564 240.09579212 -95.39126557 240.09436819 -97.11619568 240.09336853 C-101.66512503 240.08954297 -106.21402267 240.07971238 -110.76293945 240.06866455 C-115.40120006 240.05845124 -120.03946577 240.05387108 -124.67773438 240.04882812 C-133.78517022 240.03809014 -142.89258248 240.02101327 -152 240 C-151.91597759 256.40339138 -151.82079944 272.80667466 -151.71247292 289.20992184 C-151.66242879 296.82685797 -151.61598519 304.44378378 -151.578125 312.06079102 C-151.54510281 318.70259104 -151.5052157 325.344309 -151.45720994 331.98601824 C-151.43204621 335.50019069 -151.41023554 339.0143094 -151.39665604 342.52854729 C-151.38133864 346.45915278 -151.35068946 350.38956037 -151.31884766 354.32006836 C-151.31668747 355.47525467 -151.31452728 356.63044098 -151.31230164 357.82063293 C-151.24880128 369.07576941 -151.24880128 369.07576941 -146.8125 379.125 C-144.06051191 381.32546939 -144.06051191 381.32546939 -140.375 381.0625 C-137.03730953 380.26825118 -137.03730953 380.26825118 -135.125 378.3125 C-132.47605351 372.86744334 -132.83490422 366.70896897 -132.79467773 360.78173828 C-132.78477814 359.87378006 -132.77487854 358.96582184 -132.76467896 358.03034973 C-132.73321361 355.04369674 -132.70836594 352.05702787 -132.68359375 349.0703125 C-132.66301129 346.99380084 -132.64201448 344.91729325 -132.62062073 342.84078979 C-132.5655335 337.386142 -132.51606553 331.93145723 -132.46777344 326.47674561 C-132.40860852 319.92625908 -132.34245424 313.37583985 -132.27747345 306.82540894 C-132.17963198 296.8836472 -132.09066095 286.94184149 -132 277 C-112.86 277 -93.72 277 -74 277 C-73.91978238 296.74244726 -73.91978238 296.74244726 -73.90234375 305.26953125 C-73.89046741 311.04902905 -73.87654111 316.82846246 -73.84912109 322.60791016 C-73.82711499 327.27637555 -73.81537399 331.94477174 -73.81024551 336.61328506 C-73.80659886 338.3791322 -73.79948101 340.1449763 -73.78853989 341.9107933 C-73.73511843 350.90446478 -73.91132446 359.78620491 -74.87548828 368.73486328 C-74.95162794 369.45106276 -75.0277676 370.16726223 -75.10621452 370.90516472 C-76.97137423 386.4122444 -83.71494145 401.05394916 -96 411 C-114.4830807 424.12917523 -140.13910568 425.9198589 -162.11328125 422.31640625 C-175.74490888 419.43824839 -188.35532178 412.85002401 -196.8125 401.5859375 C-211.66839122 378.18790883 -210.31659729 346.74104393 -210.25878906 320.05273438 C-210.26151001 317.88946415 -210.26507703 315.72619485 -210.26940918 313.56292725 C-210.27840011 307.77417086 -210.27504605 301.98548705 -210.26865101 296.19672966 C-210.26352631 290.09489648 -210.26829971 283.99306882 -210.27142334 277.89123535 C-210.27504216 267.66055199 -210.2703167 257.42989768 -210.26074219 247.19921875 C-210.24983833 235.41280725 -210.25340567 223.62646485 -210.264395 211.84005499 C-210.27349974 201.66271805 -210.27473831 191.48540178 -210.26951766 181.30806208 C-210.26641843 175.25428796 -210.26593225 169.20054625 -210.27259064 163.14677429 C-210.27841097 157.46002241 -210.27428232 151.77335895 -210.26280212 146.08661652 C-210.26018144 144.01353857 -210.26087564 141.94045305 -210.26532745 139.86737823 C-210.29440801 124.93782563 -210.32004815 109.50018185 -205.75 95.125 C-205.53384033 94.42503906 -205.31768066 93.72507812 -205.0949707 93.00390625 C-200.59655761 79.07085351 -192.72853474 68.37392832 -180 61 C-179.41089844 60.63261719 -178.82179688 60.26523438 -178.21484375 59.88671875 C-160.75768716 49.94956808 -135.33307813 50.12236098 -116.41015625 55.1652832 C-101.83924152 59.57773307 -89.98534739 69.2947989 -82.75 82.6875 C-82.22921875 83.64011719 -81.7084375 84.59273438 -81.171875 85.57421875 C-80 88 -80 88 -80 90 C-72.53969792 82.78035282 -65.8643713 74.88862637 -59.34765625 66.8203125 C-56.0217391 62.82478474 -52.5078278 59.021537 -48.96875 55.21484375 C-46.97328212 53.16320879 -46.97328212 53.16320879 -46 51 C-45.34 51 -44.68 51 -44 51 C-43.75378906 50.43410156 -43.50757813 49.86820313 -43.25390625 49.28515625 C-41.78463776 46.60751742 -40.02247565 44.66956388 -37.9375 42.4375 C-34.68892508 38.89831774 -31.57531784 35.30439832 -28.5625 31.5625 C-24.70928851 26.79792022 -20.64251948 22.28323376 -16.4921875 17.77734375 C-13.19058569 14.09797246 -10.09123204 10.27296412 -7.0078125 6.41015625 C-1.66774716 0 -1.66774716 0 0 0 Z M-148 97 C-152.09343151 103.57872922 -152.14717385 110.25991275 -152.11352539 117.75927734 C-152.11367142 118.61846771 -152.11381744 119.47765808 -152.1139679 120.36288452 C-152.11327429 123.18726169 -152.1055078 126.01157193 -152.09765625 128.8359375 C-152.09579011 130.80034346 -152.09436713 132.7647499 -152.09336853 134.72915649 C-152.08955879 139.88793228 -152.07974171 145.04667971 -152.06866455 150.20544434 C-152.05841721 155.47419857 -152.0538638 160.74295741 -152.04882812 166.01171875 C-152.03811803 176.34116027 -152.02053376 186.67057333 -152 197 C-145.4 197 -138.8 197 -132 197 C-131.95460002 186.5503211 -131.91799866 176.10070898 -131.89637566 165.65095329 C-131.88599149 160.79737524 -131.87193177 155.94386885 -131.84912109 151.09033203 C-131.82719949 146.39594963 -131.81539115 141.70163565 -131.81024551 137.00720596 C-131.8065841 135.22688853 -131.79943565 133.44657433 -131.78853989 131.66628647 C-130.99251852 113.84098988 -130.99251852 113.84098988 -135.8125 97.1875 C-137.84071961 94.89265887 -137.84071961 94.89265887 -140.4375 93.9375 C-143.87076392 94.02123814 -145.34075986 94.83061989 -148 97 Z " fill="#FEFEFE" transform="translate(1572,33)"/>
  <path d="M0 0 C3.67624463 2.92716657 6.65278034 6.25341338 9.4921875 9.984375 C10.1521875 9.30375 10.8121875 8.623125 11.4921875 7.921875 C23.02181901 -3.510323 32.90856697 -8.43582563 49.33251953 -8.3840332 C61.27884921 -8.04203148 71.91546735 -3.85309617 80.265625 4.828125 C89.91536733 16.78009012 92.74178908 31.91505125 93.66549683 46.84893799 C93.74529372 48.05893062 93.82509062 49.26892325 93.9073056 50.51558232 C94.70562867 63.70449619 94.7653949 76.88107842 94.72431874 90.08985138 C94.71547682 93.67766713 94.71861863 97.26547839 94.72012329 100.853302 C94.72115939 107.03302526 94.71501872 113.21270547 94.70364761 119.39241791 C94.68721893 128.32664468 94.68216711 137.26085117 94.67967163 146.1950914 C94.67532136 160.69908307 94.66208569 175.20305193 94.64306641 189.70703125 C94.62463783 203.77538948 94.61051573 217.84374147 94.60205078 231.91210938 C94.60152533 232.78292982 94.60099989 233.65375026 94.60045852 234.5509592 C94.59784797 238.92069835 94.59532067 243.29043754 94.59283471 247.66017675 C94.57218551 283.76826312 94.53536149 319.87630716 94.4921875 355.984375 C75.6821875 355.984375 56.8721875 355.984375 37.4921875 355.984375 C37.48632126 352.06166214 37.48045502 348.13894928 37.47441101 344.09736633 C37.4192602 308.14302928 37.34931858 272.18874544 37.26320122 236.23446878 C37.25193277 231.52423271 37.24079436 226.81399634 37.22973633 222.10375977 C37.2264308 220.69714754 37.2264308 220.69714754 37.2230585 219.2621189 C37.1876655 204.06916819 37.16281268 188.87621754 37.14184048 173.68324087 C37.12009437 158.09918265 37.08705531 142.51517804 37.04348594 126.9311654 C37.01694869 117.31142923 36.9992686 107.69175987 36.99284146 98.0719889 C36.98759391 91.47947202 36.97139831 84.88703927 36.94652184 78.29456744 C36.93248506 74.48843114 36.92334411 70.68244555 36.92717934 66.87628174 C36.9312084 62.75279427 36.91221891 58.62973612 36.89091492 54.50630188 C36.89576249 53.29910832 36.90061007 52.09191476 36.90560454 50.84813958 C36.896148 49.74439813 36.88669146 48.64065668 36.87694836 47.50346851 C36.87504975 46.55150965 36.87315115 45.59955078 36.87119502 44.61874467 C36.41622634 41.45639133 35.35230006 39.56090686 33.4921875 36.984375 C30.60357041 35.54006645 28.69571049 35.60748994 25.4921875 35.984375 C22.07232373 38.72026601 20.23061783 40.69125036 19.4921875 44.984375 C19.39879059 46.7655916 19.35854871 48.54991214 19.3535223 50.33356857 C19.34804786 51.42486879 19.34257341 52.51616901 19.33693308 53.64053893 C19.33595497 54.83897249 19.33497686 56.03740604 19.33396912 57.27215576 C19.32903114 58.54555825 19.32409316 59.81896073 19.31900555 61.13095117 C19.30542306 64.66779999 19.29800576 68.20463921 19.29157889 71.74150729 C19.28357545 75.55470835 19.26987747 79.36788939 19.25686646 83.18107605 C19.23510293 89.78845341 19.21695798 96.39583279 19.20126152 103.00322723 C19.17856178 112.55644384 19.15041908 122.10963829 19.12094224 131.6628361 C19.07326762 147.16177028 19.03000308 162.66071351 18.98950195 178.15966797 C18.95014637 193.21664128 18.90871999 208.27360655 18.86450195 223.33056641 C18.86041554 224.7224235 18.86041554 224.7224235 18.85624658 226.14239892 C18.84256709 230.79736265 18.82884682 235.45232625 18.81510627 240.10728979 C18.70114353 278.73296829 18.59460514 317.35866429 18.4921875 355.984375 C0.0121875 355.984375 -18.4678125 355.984375 -37.5078125 355.984375 C-37.52763184 346.84339111 -37.54745117 337.70240723 -37.56787109 328.28442383 C-37.63272744 299.01119691 -37.70726328 269.73800175 -37.78786411 240.46481412 C-37.80038245 235.91510089 -37.81281531 231.36538743 -37.82519531 226.81567383 C-37.82766131 225.90993697 -37.8301273 225.00420012 -37.83266802 224.07101669 C-37.87235324 209.42019355 -37.9051193 194.76936274 -37.93531232 180.11851732 C-37.9664654 165.07683648 -38.00509122 150.03518811 -38.05060256 134.9935438 C-38.07843413 125.71778982 -38.10049019 116.44205948 -38.11507501 107.16627505 C-38.12564605 100.79891532 -38.14349892 94.43160147 -38.16697954 88.06427637 C-38.18029905 84.39489518 -38.19050239 80.72557808 -38.19202614 77.05617142 C-38.1937672 73.06693096 -38.21089098 69.07789751 -38.2293396 65.08869934 C-38.2264375 63.37122733 -38.2264375 63.37122733 -38.22347677 61.61905891 C-38.28909066 50.15984646 -38.28909066 50.15984646 -40.5078125 38.984375 C-42.94225569 36.61448095 -44.11483289 36.04168453 -47.5078125 35.546875 C-50.53336324 35.7691294 -50.53336324 35.7691294 -52.7578125 37.484375 C-57.4866456 44.23985086 -56.79928433 52.74405664 -56.7862854 60.63928223 C-56.7920778 61.90385175 -56.7978702 63.16842128 -56.80383813 64.47131109 C-56.81957766 67.96493746 -56.82306546 71.45848327 -56.82448673 74.95214081 C-56.82819139 78.72574637 -56.84335216 82.49930828 -56.85710144 86.27288818 C-56.87934468 92.80544067 -56.8943756 99.33797757 -56.90446854 105.87055969 C-56.9190716 115.31550014 -56.94461299 124.76038627 -56.97279982 134.20529479 C-57.01823825 149.53007796 -57.05486524 164.85486896 -57.0859375 180.1796875 C-57.11613512 195.06381607 -57.15049097 209.94792549 -57.19042969 224.83203125 C-57.19412201 226.20887053 -57.19412201 226.20887053 -57.19788893 227.61352473 C-57.21026376 232.21845379 -57.22272025 236.82338262 -57.23521733 241.42831135 C-57.33874096 279.61364006 -57.42741442 317.79899111 -57.5078125 355.984375 C-75.9878125 355.984375 -94.4678125 355.984375 -113.5078125 355.984375 C-113.5078125 237.184375 -113.5078125 118.384375 -113.5078125 -4.015625 C-96.3478125 -4.015625 -79.1878125 -4.015625 -61.5078125 -4.015625 C-61.0128125 2.419375 -61.0128125 2.419375 -60.5078125 8.984375 C-59.6621875 7.6025 -58.8165625 6.220625 -57.9453125 4.796875 C-53.15738049 -2.29594521 -48.04873033 -5.51119764 -39.7265625 -7.51171875 C-25.57691655 -9.7268939 -12.01023855 -8.14607484 0 0 Z " fill="#FEFEFE" transform="translate(2065.5078125,95.015625)"/>
  <path d="M0 0 C16.83 0 33.66 0 51 0 C57.76111383 10.14167074 57.76111383 10.14167074 60.15625 14.58203125 C60.69733398 15.58339111 61.23841797 16.58475098 61.79589844 17.61645508 C62.63942871 19.19849731 62.63942871 19.19849731 63.5 20.8125 C64.09586914 21.92455811 64.69173828 23.03661621 65.30566406 24.18237305 C69.91023201 32.83069618 74.36685069 41.55009739 78.75 50.3125 C79.05204346 50.9155899 79.35408691 51.51867981 79.6652832 52.14004517 C84.99167594 62.79483661 84.99167594 62.79483661 87 68 C87.12142549 55.41222406 86.93327687 42.87208543 86.35571289 30.2956543 C85.91874349 20.16746702 86 10.17846244 86 0 C105.8 0 125.6 0 146 0 C146 136.29 146 272.58 146 413 C126.2 413 106.4 413 86 413 C85.970271 404.61339966 85.970271 404.61339966 85.93994141 396.05737305 C85.87250239 377.41382763 85.79496826 358.77033375 85.71247292 340.12684917 C85.66278176 328.84296143 85.61634229 317.55907941 85.578125 306.27514648 C85.54472703 296.41677239 85.50465117 286.55844951 85.45720994 276.70013267 C85.43240813 271.50142826 85.41050348 266.30275571 85.39665604 261.10400963 C85.33791793 239.89427385 85.05523597 218.72420384 84.08349609 197.53442383 C84.04384712 196.64605501 84.00419814 195.75768618 83.96334767 194.84239709 C82.5073084 162.96817337 77.44099993 130.5091058 61.8671875 102.20996094 C61.3294873 101.23089783 60.79178711 100.25183472 60.23779297 99.24310303 C59.82932129 98.50287903 59.42084961 97.76265503 59 97 C59.02969846 97.78364601 59.05939691 98.56729201 59.08999532 99.37468487 C59.81127293 118.81716847 60.14161924 138.22355747 60.11352539 157.68139648 C60.11267912 160.49381537 60.11336005 163.30623345 60.1139679 166.11865234 C60.11448485 172.09859614 60.11142641 178.07852878 60.10573006 184.05846977 C60.09750023 192.70378505 60.09498828 201.34909509 60.09374207 209.99441386 C60.09156927 224.03086553 60.08495801 238.06731129 60.07543945 252.10375977 C60.06621895 265.7150876 60.059161 279.32641381 60.05493164 292.93774414 C60.05466892 293.78089345 60.05440619 294.62404276 60.05413551 295.49274205 C60.05283019 299.72381268 60.05156655 303.95488333 60.05032361 308.18595397 C60.04000636 343.12397457 60.02159847 378.0619842 60 413 C40.2 413 20.4 413 0 413 C0 276.71 0 140.42 0 0 Z " fill="#FEFEFE" transform="translate(1646,38)"/>
  <path d="M0 0 C20.13 0 40.26 0 61 0 C61.02505615 4.25068359 61.0501123 8.50136719 61.07592773 12.88085938 C61.16069545 27.17766966 61.24915094 41.47445554 61.33933926 55.7712326 C61.39375236 64.41030431 61.44702321 73.0493798 61.49731445 81.68847656 C61.84978189 157.85979809 61.84978189 157.85979809 63.875 234 C63.93702606 235.64693848 63.93702606 235.64693848 64.00030518 237.32714844 C65.18893816 268.58703326 66.89956632 299.81012155 70.0625 330.9375 C70.14449646 331.75178467 70.22649292 332.56606934 70.31097412 333.4050293 C71.12504148 341.37778233 72.00787279 349.21742303 74 357 C78.3275125 322.90224302 80.93502943 288.87247025 82.52723312 254.54003906 C82.62192588 252.50361086 82.71809801 250.46725689 82.81448364 248.4309082 C85.22811974 196.73589642 85.26364194 145.00211696 85.51741004 93.26228207 C85.56755757 83.06804193 85.62218337 72.87382706 85.67708123 62.67961156 C85.78950004 41.78643039 85.89603365 20.89322506 86 0 C106.13 0 126.26 0 147 0 C147.04558806 23.14435674 147.08224105 46.28867573 147.10362434 69.43306637 C147.1138279 80.18545615 147.12772968 90.93781523 147.15087891 101.69018555 C147.34931725 195.79211835 147.34931725 195.79211835 145 233 C144.94619801 233.85580154 144.89239601 234.71160309 144.83696365 235.59333801 C141.00215134 295.96653179 131.57922352 356.5519412 109 413 C85.57 413 62.14 413 38 413 C29.7357652 391.74911051 29.7357652 391.74911051 26.5 381.1875 C26.12254639 379.95741211 25.74509277 378.72732422 25.35620117 377.45996094 C-0.45386371 292.31222064 -0.28865168 202.4898043 -0.14405453 93.50721031 C-0.12118558 83.27888557 -0.11057538 73.05055723 -0.10064721 62.82221305 C-0.08006398 41.88144019 -0.04357696 20.94073851 0 0 Z " fill="#FEFEFE" transform="translate(1129,38)"/>
  <path d="M0 0 C4.16107423 3.45009932 7.14295752 7.30028407 10.1875 11.75 C10.5175 6.8 10.8475 1.85 11.1875 -3.25 C28.3475 -3.25 45.5075 -3.25 63.1875 -3.25 C63.23278196 40.59828758 63.26855654 84.44656951 63.28963066 128.29487587 C63.29213185 133.48019398 63.29472052 138.66551204 63.29736328 143.85083008 C63.2978879 144.88306488 63.29841252 145.91529969 63.29895304 146.97881434 C63.30763826 163.65797288 63.32339779 180.33711754 63.34180559 197.01626786 C63.36055716 214.15074643 63.37162781 231.28521776 63.37567699 248.41970617 C63.37841117 258.97911196 63.38702377 269.53847848 63.40333293 280.09787218 C63.41396482 287.35438195 63.4170867 294.61087164 63.41450275 301.86738863 C63.41323105 306.04409165 63.4150782 310.22072641 63.42591095 314.39741707 C63.59469893 383.03104673 63.59469893 383.03104673 45.62890625 401.5 C26.98500996 418.68221482 0.45813554 420.69628442 -23.8125 419.75 C-42.80631833 418.81024149 -61.31604805 415.37832321 -78.8125 407.75 C-76.56648143 399.79061245 -73.87059287 392.0036446 -71.05126953 384.2331543 C-70.55360526 382.85512094 -70.06119119 381.47518154 -69.57373047 380.09350586 C-68.8624192 378.07765068 -68.13621737 376.06775662 -67.40625 374.05859375 C-66.98021484 372.87064209 -66.55417969 371.68269043 -66.11523438 370.45874023 C-65.68533203 369.56485596 -65.25542969 368.67097168 -64.8125 367.75 C-61.8125 366.75 -61.8125 366.75 -59.31640625 367.82421875 C-58.34574219 368.35660156 -57.37507812 368.88898438 -56.375 369.4375 C-42.09106574 376.88245967 -25.06916787 380.85796075 -9.125 376.5625 C-3.25497782 374.39986025 0.65849284 371.26359708 3.5625 365.6875 C5.82579852 360.15083585 5.54584695 354.63286237 5.1875 348.75 C4.8471875 349.20890625 4.506875 349.6678125 4.15625 350.140625 C-1.31825421 357.07111437 -8.09483413 360.48679618 -16.8125 361.75 C-29.30715043 362.85076518 -40.95631834 359.81132368 -50.8984375 352.140625 C-67.30390354 337.43227614 -67.65960508 314.10800843 -68.8125 293.75 C-69.11395096 285.77816938 -69.08772859 277.80438292 -69.07128906 269.828125 C-69.07400949 267.55960987 -69.07757623 265.29109563 -69.08190918 263.02258301 C-69.0909106 256.94404368 -69.08754033 250.86557338 -69.08115101 244.78703308 C-69.07602669 238.37397092 -69.08080009 231.960914 -69.08392334 225.54785156 C-69.08777529 214.09982564 -69.08162671 202.65183449 -69.07140467 191.20381403 C-69.0624726 180.88195449 -69.06402571 170.56013998 -69.07324219 160.23828125 C-69.08401175 148.1718995 -69.08789417 136.10555296 -69.08201766 124.0391655 C-69.07892698 117.68108797 -69.07840749 111.32304126 -69.08509064 104.96496582 C-69.09094148 98.98271149 -69.08672844 93.00054075 -69.07530212 87.01829529 C-69.07269633 84.84537392 -69.07334894 82.6724453 -69.07782745 80.49952698 C-69.18946493 20.74597548 -69.18946493 20.74597548 -52.08203125 2.72265625 C-37.46352108 -9.98362195 -15.71280649 -11.42511886 0 0 Z M-8 37.125 C-12.81344254 44.09619264 -13.25123073 52.305525 -13.19345093 60.52807617 C-13.20047089 62.08614251 -13.20047089 62.08614251 -13.20763266 63.67568493 C-13.21953082 67.13157884 -13.21014553 70.58707239 -13.20068359 74.04296875 C-13.20475158 76.53065216 -13.21009474 79.01833377 -13.21661377 81.50601196 C-13.22885015 87.54664435 -13.2270911 93.58712154 -13.21837585 99.62774777 C-13.21158408 104.53971348 -13.21068902 109.45164788 -13.2139473 114.36361694 C-13.214407 115.06431657 -13.21486669 115.7650162 -13.21534032 116.48694915 C-13.21629956 117.9106745 -13.2172722 119.33439985 -13.2182581 120.75812519 C-13.22680041 134.08956347 -13.21699609 147.42093974 -13.200857 160.75236785 C-13.18745486 172.1764143 -13.18978328 183.60036927 -13.20361328 195.02441406 C-13.21968961 208.31010727 -13.22597655 221.59574621 -13.21677649 234.88144779 C-13.2158209 236.29975954 -13.21487779 237.71807129 -13.2139473 239.13638306 C-13.21348447 239.83411007 -13.21302164 240.53183708 -13.21254479 241.25070733 C-13.20996105 246.15334742 -13.21431257 251.05595291 -13.22138596 255.95858765 C-13.2307077 262.56440618 -13.2240139 269.17007922 -13.20670319 275.77589035 C-13.20274409 278.1969817 -13.20386246 280.61808761 -13.21049118 283.03917313 C-13.21871934 286.35028437 -13.20836917 289.66084728 -13.19345093 292.97192383 C-13.20014309 293.92427508 -13.20683526 294.87662634 -13.21373022 295.85783672 C-13.15058879 303.10984464 -12.19984504 310.29246581 -8 316.375 C-5.06022905 318.22285602 -3.22884411 318.17704301 0.1875 317.75 C2.78983743 316.88255419 3.84513044 316.30888311 5.28079569 313.96530718 C6.29556288 311.48597515 6.4401552 309.72721408 6.44476891 307.05508518 C6.4512178 306.10968768 6.45766669 305.16429017 6.464311 304.19024426 C6.4612138 303.15475018 6.4581166 302.11925611 6.45492554 301.05238342 C6.45945665 299.94993442 6.46398776 298.84748541 6.46865618 297.71162885 C6.48135237 294.00440635 6.47967644 290.29732978 6.47802734 286.59008789 C6.48400928 283.93754018 6.49075708 281.28500404 6.49838257 278.63246155 C6.5149985 272.16761147 6.52049236 265.70279786 6.52160732 259.23792822 C6.52255741 253.98396079 6.5266657 248.73000541 6.53300858 243.47604179 C6.55062169 228.58386392 6.5598472 213.69171488 6.55834763 198.79952652 C6.55826772 197.99661294 6.5581878 197.19369937 6.55810547 196.36645508 C6.55802371 195.56256265 6.55794195 194.75867022 6.55785771 193.93041741 C6.55704452 180.89748257 6.57619011 167.86466321 6.6043822 154.83176178 C6.63309358 141.45338595 6.6469235 128.07506647 6.64519465 114.69665903 C6.6445302 107.18415254 6.65004665 99.67176717 6.67155075 92.15928841 C6.68973951 85.76400863 6.69412891 79.36890488 6.6805319 72.97361047 C6.67399073 69.71011636 6.67608921 66.44703124 6.6912384 63.1835556 C6.70659539 59.64693218 6.69744509 56.11120335 6.68197632 52.57460022 C6.69226344 51.54133687 6.70255057 50.50807351 6.71314943 49.44349915 C6.67021198 45.01789226 6.63050628 42.47382324 4.28159523 38.63596249 C1.74359634 36.35021606 0.72150418 35.80804393 -2.6875 35.4375 C-5.79783261 35.51429375 -5.79783261 35.51429375 -8 37.125 Z " fill="#FEFEFE" transform="translate(588.8125,94.25)"/>
  <path d="M0 0 C1.23202148 0.01160156 2.46404297 0.02320312 3.73339844 0.03515625 C20.3398296 0.33445053 37.91305266 4.12385471 50.265625 16.23046875 C67.50567536 36.80609407 68.36781213 60.77996133 68.3371582 86.53613281 C68.34151194 88.96216488 68.34669729 91.38819557 68.35264587 93.81422424 C68.36459593 99.69118022 68.36719581 105.56809375 68.36484561 111.44505724 C68.36305378 116.22861254 68.36483051 121.01215405 68.36907005 125.7957077 C68.36966524 126.47967878 68.37026043 127.16364986 68.37087366 127.86834733 C68.37208556 129.25839569 68.3732997 130.64844405 68.37451603 132.03849241 C68.3853634 145.04064184 68.38324256 158.04276526 68.37713119 171.04491612 C68.37196596 182.90120805 68.38321206 194.75741772 68.40222941 206.61369339 C68.42167129 218.82966532 68.42985263 231.04559847 68.42610615 243.26158595 C68.42420352 250.10308081 68.4265892 256.94450573 68.44082069 263.78598785 C68.45407985 270.22443556 68.45138885 276.66276055 68.43840981 283.10120964 C68.43605962 285.45122014 68.43872213 287.80124241 68.44703293 290.1512394 C68.52250721 313.16964546 67.39384369 336.20873814 51.29296875 354.37109375 C34.71231114 370.04417852 13.72452773 371.25956249 -7.83984375 370.7578125 C-23.40726243 370.10840424 -38.42725638 365.63935689 -49.91015625 354.61328125 C-68.03991654 334.59718752 -67.39975102 304.07466419 -67.32568359 278.71704102 C-67.32976084 276.334221 -67.33510912 273.95140288 -67.34161377 271.56858826 C-67.35515089 265.16821333 -67.35004701 258.76798541 -67.34047651 252.36760831 C-67.33591392 248.35818334 -67.33616486 244.34879365 -67.3389473 240.33936882 C-67.339407 239.6694923 -67.33986669 238.99961578 -67.34034032 238.30943997 C-67.34129968 236.94781168 -67.34227232 235.5861834 -67.3432581 234.22455513 C-67.3517658 221.52622488 -67.34204864 208.82796013 -67.325857 196.12964063 C-67.31243637 185.26844199 -67.31480524 174.40733952 -67.32861328 163.54614258 C-67.344714 150.87595271 -67.35096482 138.20581977 -67.34177649 125.53562111 C-67.34082101 124.18172102 -67.33987789 122.82782093 -67.3389473 121.47392082 C-67.33848447 120.80807833 -67.33802164 120.14223583 -67.33754479 119.45621629 C-67.33496995 114.79623757 -67.33944211 110.13629639 -67.34638596 105.47632027 C-67.35509544 99.19451788 -67.34896124 92.91289608 -67.33170319 86.63111305 C-67.32776075 84.33627878 -67.32883356 82.04142911 -67.33549118 79.7466011 C-67.39730279 56.26386885 -64.98096232 34.3304081 -48.5 16.1875 C-44.39472411 12.26939475 -40.138686 9.50654083 -35.125 6.9375 C-34.51019775 6.61950439 -33.89539551 6.30150879 -33.26196289 5.97387695 C-22.68827115 0.94091342 -11.56709336 -0.14001434 0 0 Z M-7.9375 44.375 C-10.47704556 49.7373341 -10.21760359 55.128133 -10.19146729 60.93107605 C-10.19458727 61.99424854 -10.19770725 63.05742103 -10.20092177 64.15281087 C-10.20889911 67.7154557 -10.20257895 71.27793007 -10.19628906 74.84057617 C-10.19899912 77.39501037 -10.20256013 79.94944379 -10.20690918 82.50387573 C-10.21508787 88.72316124 -10.21388238 94.94238365 -10.2080839 101.16166999 C-10.20356393 106.21959852 -10.20295596 111.27751353 -10.20513153 116.3354435 C-10.205438 117.05582389 -10.20574446 117.77620428 -10.20606022 118.51841438 C-10.20669969 119.98199914 -10.20734811 121.44558389 -10.2080054 122.90916864 C-10.21370813 136.6330888 -10.20715275 150.35698224 -10.19640467 164.08089802 C-10.18747871 175.84178722 -10.18901341 187.60263691 -10.19824219 199.36352539 C-10.20896223 213.03117263 -10.21314881 226.69879641 -10.20701766 240.36644727 C-10.20638059 241.82612407 -10.20575185 243.28580087 -10.20513153 244.74547768 C-10.20482298 245.4635927 -10.20451443 246.18170772 -10.20419653 246.9215838 C-10.20247407 251.96746998 -10.20537517 257.01334122 -10.21009064 262.05922508 C-10.21630899 268.86277943 -10.21183642 275.66624806 -10.20030212 282.46979904 C-10.197664 284.96303369 -10.19840611 287.45627463 -10.20282745 289.94950676 C-10.20831807 293.36109006 -10.20140594 296.77243734 -10.19146729 300.18400574 C-10.19592873 301.16340927 -10.20039017 302.1428128 -10.20498681 303.15189523 C-10.15769326 316.78866381 -10.15769326 316.78866381 -3.9375 328.375 C-0.19289448 329.75887595 1.54116411 329.55546242 5.3125 328.25 C8.4991264 326.07730018 8.92987341 324.97617752 10.0625 321.375 C10.35787323 319.01474844 10.35787323 319.01474844 10.31697559 316.56262398 C10.32280779 315.61646882 10.32863998 314.67031367 10.33464891 313.69548714 C10.33086958 312.66427015 10.32709026 311.63305315 10.32319641 310.57058716 C10.32702196 309.46869486 10.33084751 308.36680256 10.33478898 307.23151958 C10.34512379 303.53206506 10.34112585 299.8327656 10.3371582 296.13330078 C10.34150442 293.48385095 10.34662265 290.83441256 10.35264587 288.18496704 C10.36539704 281.73094146 10.36718603 275.27695747 10.36484561 268.82292141 C10.36306266 263.57662343 10.36481159 258.33033807 10.36907005 253.0840416 C10.36966524 252.33739257 10.37026043 251.59074355 10.37087366 250.82146879 C10.37208541 249.30464658 10.37329954 247.78782437 10.37451603 246.27100216 C10.3853933 232.0450422 10.38322827 217.81910594 10.37713119 203.59314464 C10.37196253 190.58104382 10.38321576 177.56901788 10.40222941 164.55693187 C10.42160544 151.19433605 10.42986418 137.83177565 10.42610615 124.46916568 C10.42419366 116.96781315 10.42668625 109.46652433 10.44082069 101.96518326 C10.45273252 95.57878834 10.45414169 89.19249636 10.44203053 82.80610003 C10.43614022 79.54849187 10.43667292 76.29111096 10.44703293 73.0335083 C10.45746083 69.49995702 10.44943089 65.96691298 10.4367218 62.43338013 C10.44409609 61.40662458 10.45147037 60.37986902 10.45906812 59.32199967 C10.41550598 53.57115089 9.8760739 49.43567837 7.0625 44.375 C1.81537627 40.20420934 -2.46283208 40.8045644 -7.9375 44.375 Z " fill="#FEFEFE" transform="translate(921.9375,85.625)"/>
  <path d="M0 0 C14.90910666 12.98120494 17.17144098 31.5077234 18.58343124 50.03674316 C19.35879893 61.70013659 19.26761362 73.38047552 19.23213124 85.06392884 C19.22332947 88.71589205 19.22642845 92.36785031 19.22793579 96.01982117 C19.2289743 102.31693243 19.22280751 108.61400161 19.21146011 114.91110229 C19.19506543 124.01515849 19.18998299 133.11919475 19.18748413 142.2232641 C19.18312868 157.00123051 19.16987857 171.77917459 19.15087891 186.55712891 C19.132464 200.89534393 19.11833512 215.23355285 19.10986328 229.57177734 C19.10933783 230.45858366 19.10881239 231.34538997 19.10827102 232.2590692 C19.10566056 236.70881125 19.10313324 241.15855333 19.10064721 245.60829544 C19.0799818 282.40555014 19.04314873 319.20276345 19 356 C0.52 356 -17.96 356 -37 356 C-37.00808685 352.07506653 -37.01617371 348.15013306 -37.02450562 344.10626221 C-37.0995358 308.1371567 -37.18440752 272.16808524 -37.28005161 236.19902845 C-37.2925709 231.48750354 -37.30500361 226.7759784 -37.31738281 222.06445312 C-37.31984881 221.12644933 -37.3223148 220.18844553 -37.32485552 219.22201738 C-37.36460965 204.02192567 -37.39734523 188.82182651 -37.42749982 173.62171307 C-37.45858301 158.03202021 -37.49717892 142.4423591 -37.54279006 126.8527019 C-37.57071023 117.22836921 -37.59272793 107.60405981 -37.60726251 97.97969744 C-37.61778183 91.38533567 -37.63557996 84.79101894 -37.65916704 78.19669107 C-37.67257082 74.38868166 -37.68270294 70.58073553 -37.68421364 66.77270126 C-37.68593321 62.64894217 -37.70294804 58.52538988 -37.7215271 54.40167236 C-37.718625 52.58651276 -37.718625 52.58651276 -37.71566427 50.73468328 C-37.72312976 49.63293287 -37.73059525 48.53118247 -37.73828697 47.39604568 C-37.74056529 46.4437071 -37.74284362 45.49136851 -37.74519098 44.51017118 C-38.01759749 41.82664381 -38.52683201 40.24878773 -40 38 C-43.75047482 35.49968346 -45.55856266 35.46396446 -50 36 C-54.11379957 38.92536858 -55.4989857 41.69658231 -56.61325717 46.55072212 C-57.40181193 51.5447119 -57.2868057 56.5725689 -57.2784729 61.61694336 C-57.2842653 62.87742933 -57.2900577 64.13791531 -57.29602563 65.43659782 C-57.31176463 68.91882267 -57.31525293 72.4009667 -57.31667423 75.88322282 C-57.32037898 79.6445584 -57.3355398 83.40585019 -57.34928894 87.16716003 C-57.37153189 93.67843158 -57.38656298 100.18968749 -57.39665604 106.70098877 C-57.41125927 116.11516022 -57.4368007 125.52927717 -57.46498732 134.9434166 C-57.51042545 150.21828542 -57.54705257 165.4931621 -57.578125 180.76806641 C-57.60832275 195.60369242 -57.64267865 210.43929922 -57.68261719 225.27490234 C-57.68507874 226.1898082 -57.68754028 227.10471405 -57.69007643 228.04734433 C-57.70245127 232.63728931 -57.71490775 237.22723407 -57.72740483 241.81717873 C-57.83092801 279.87809322 -57.91960163 317.93903015 -58 356 C-76.48 356 -94.96 356 -114 356 C-114.02258345 310.28254448 -114.0404972 264.56509029 -114.05106533 218.8476303 C-114.05231611 213.45628152 -114.05361042 208.06493275 -114.05493164 202.67358398 C-114.05519395 201.60021559 -114.05545626 200.5268472 -114.05572652 199.42095249 C-114.06008366 182.01697036 -114.06797144 164.61299151 -114.0771528 147.20901132 C-114.08648813 129.36498089 -114.09205535 111.52095218 -114.09408849 93.6769194 C-114.09546397 82.65682662 -114.0998159 71.63674312 -114.10791647 60.6166532 C-114.11318244 53.07061653 -114.11480464 45.5245847 -114.11350138 37.97854633 C-114.11285776 33.6180173 -114.11387812 29.25750455 -114.11920547 24.89697838 C-114.1240391 20.91172323 -114.1243389 16.92649546 -114.12089889 12.94123911 C-114.12047316 11.4930473 -114.12176922 10.04485385 -114.12488318 8.59666533 C-114.12884666 6.64100877 -114.12615658 4.68534199 -114.12304783 2.72968388 C-114.12342755 1.63950681 -114.12380727 0.54932974 -114.1241985 -0.573883 C-114 -3 -114 -3 -113 -4 C-111.40389018 -4.09333705 -109.80366572 -4.11745372 -108.20483398 -4.11352539 C-107.18385117 -4.11344986 -106.16286835 -4.11337433 -105.11094666 -4.11329651 C-104.0005452 -4.10813522 -102.89014374 -4.10297394 -101.74609375 -4.09765625 C-100.05021873 -4.09553383 -100.05021873 -4.09553383 -98.32008362 -4.09336853 C-94.69252935 -4.08775019 -91.06503576 -4.07519458 -87.4375 -4.0625 C-84.98502693 -4.05748736 -82.5325529 -4.05292405 -80.08007812 -4.04882812 C-74.05336187 -4.0377748 -68.02669124 -4.02049788 -62 -4 C-61.505 3.425 -61.505 3.425 -61 11 C-60.195625 9.47375 -59.39125 7.9475 -58.5625 6.375 C-53.97770381 -1.21621992 -47.45495422 -5.286016 -38.9375 -7.53515625 C-24.95076993 -9.74848189 -11.79357796 -8.11244638 0 0 Z " fill="#FEFEFE" transform="translate(823,95)"/>
  <path d="M0 0 C14.33119222 12.0683724 18.49760058 27.314757 20.21062851 45.37465858 C21.11646586 56.66137947 20.89043377 68.01038554 20.85713124 79.32540166 C20.84837764 83.06675172 20.85142519 86.8080963 20.85293579 90.54945374 C20.85397722 97.00926069 20.84777898 103.46902679 20.83646011 109.92882347 C20.82010635 119.26824325 20.81498708 128.60764357 20.81248413 137.94707612 C20.8081224 153.10494667 20.79485491 168.26279551 20.77587891 183.4206543 C20.7574805 198.13256727 20.74334346 212.84447431 20.73486328 227.55639648 C20.73433783 228.46542538 20.73381239 229.37445429 20.73327102 230.31102952 C20.73066067 234.87201323 20.72813332 239.43299698 20.72564721 243.99398077 C20.70496217 281.74600311 20.66922247 319.49799843 20.625 357.25 C2.475 357.25 -15.675 357.25 -34.375 357.25 C-34.38308685 353.38184067 -34.39117371 349.51368134 -34.39950562 345.52830505 C-34.47456879 310.06249334 -34.55945082 274.59671602 -34.65505161 239.13095352 C-34.66757059 234.48338002 -34.68000335 229.83580629 -34.69238281 225.18823242 C-34.69484881 224.26297802 -34.6973148 223.33772361 -34.69985552 222.38443119 C-34.7395871 207.39976166 -34.77233268 192.41508458 -34.80249982 177.43039309 C-34.83360583 162.05651789 -34.87221161 146.68267474 -34.91779006 131.30883557 C-34.94568121 121.82116875 -34.96771155 112.3335254 -34.98226251 102.8458286 C-34.9927987 96.34115065 -35.0106149 89.83651811 -35.03416704 83.33187436 C-35.04754317 79.5781754 -35.0576987 75.82454012 -35.05921364 72.07081604 C-35.06094019 68.00065443 -35.07799097 63.93070016 -35.0965271 59.86058044 C-35.093625 58.08187432 -35.093625 58.08187432 -35.09066427 56.26723474 C-34.92982468 46.65358496 -34.92982468 46.65358496 -39.0625 38.3125 C-42.42996254 36.76528748 -44.71202407 36.73589812 -48.375 37.25 C-51.84278574 39.96391927 -53.62676911 41.94510698 -54.375 46.25 C-54.46839691 48.0312166 -54.50863879 49.81553714 -54.5136652 51.59919357 C-54.51913964 52.69049379 -54.52461409 53.78179401 -54.53025442 54.90616393 C-54.53123253 56.10459749 -54.53221064 57.30303104 -54.53321838 58.53778076 C-54.53815636 59.81118325 -54.54309434 61.08458573 -54.54818195 62.39657617 C-54.56176444 65.93342499 -54.56918174 69.47026421 -54.57560861 73.00713229 C-54.58361205 76.82033335 -54.59731003 80.63351439 -54.61032104 84.44670105 C-54.63208457 91.05407841 -54.65022952 97.66145779 -54.66592598 104.26885223 C-54.68862572 113.82206884 -54.71676842 123.37526329 -54.74624526 132.9284611 C-54.79391988 148.42739528 -54.83718442 163.92633851 -54.87768555 179.42529297 C-54.91704113 194.48226628 -54.95846751 209.53923155 -55.00268555 224.59619141 C-55.00540982 225.52409614 -55.00813409 226.45200087 -55.01094092 227.40802392 C-55.02462041 232.06298765 -55.03834068 236.71795125 -55.05208123 241.37291479 C-55.16604397 279.99859329 -55.27258236 318.62428929 -55.375 357.25 C-73.855 357.25 -92.335 357.25 -111.375 357.25 C-111.375 238.45 -111.375 119.65 -111.375 -2.75 C-94.215 -2.75 -77.055 -2.75 -59.375 -2.75 C-58.88 3.685 -58.88 3.685 -58.375 10.25 C-57.075625 8.4246875 -57.075625 8.4246875 -55.75 6.5625 C-50.68146237 -0.15598313 -45.12145988 -4.58108995 -36.62890625 -6.30859375 C-24.01155241 -8.02019157 -10.76552495 -7.54824163 0 0 Z " fill="#FEFEFE" transform="translate(488.375,93.75)"/>
  <path d="M0 0 C2.67377755 2.45905736 4.8684076 5.06302004 7 8 C7.52207031 8.71542969 8.04414063 9.43085937 8.58203125 10.16796875 C18.42842558 25.04973435 20.33894904 43.65790826 20.22705078 61.06396484 C20.22734283 62.28520554 20.22763489 63.50644623 20.22793579 64.76469421 C20.22679409 68.06341738 20.21687347 71.36196324 20.20278788 74.66065168 C20.19015099 78.12659378 20.18909994 81.59254061 20.18673706 85.0585022 C20.18055989 91.59939775 20.16420093 98.14022518 20.14403808 104.68109095 C20.11934929 112.87071415 20.10851131 121.06034878 20.09765625 129.25 C20.07826631 143.83338618 20.03818748 158.41662407 20 173 C-5.74 173 -31.48 173 -58 173 C-57.87326362 195.83969105 -57.87326362 195.83969105 -57.72766876 218.67924023 C-57.67234978 226.85002119 -57.61986305 235.02078755 -57.578125 243.19165039 C-57.54506011 249.66280564 -57.50515025 256.13387736 -57.45720994 262.60494012 C-57.43208813 266.02751427 -57.41026568 269.45003405 -57.39665604 272.87267494 C-57.37969304 276.70470658 -57.35063346 280.53647469 -57.31884766 284.3684082 C-57.31668747 285.48835175 -57.31452728 286.60829529 -57.31230164 287.76217651 C-57.45401841 301.25453473 -57.45401841 301.25453473 -52 313 C-48.0397658 314.20528867 -44.97445961 314.05206284 -41 313 C-39.09058408 307.35097681 -38.69585795 302.33244925 -38.68115234 296.39282227 C-38.67110672 295.45545731 -38.6610611 294.51809235 -38.65071106 293.55232239 C-38.61997766 290.47368955 -38.60287129 287.39514328 -38.5859375 284.31640625 C-38.56721794 282.17405965 -38.54764394 280.03172037 -38.5272522 277.88938904 C-38.47600832 272.26543496 -38.43634111 266.64145699 -38.39910889 261.01739502 C-38.35196578 254.2616092 -38.29040115 247.50594118 -38.23126221 240.75025177 C-38.14314441 230.5002156 -38.07331218 220.25020092 -38 210 C-18.86 210 0.28 210 20 210 C20.08021762 231.15071212 20.08021762 231.15071212 20.09765625 240.2421875 C20.10956139 246.41930627 20.12356796 252.59636513 20.15087891 258.7734375 C20.1727837 263.75959297 20.18460541 268.74568409 20.18975449 273.731884 C20.19341885 275.62384426 20.20057333 277.51580143 20.21146011 279.40773392 C20.33154092 301.16245978 18.65752187 321.79841781 4 339 C-11.68877195 354.41396862 -30.99629046 356.6186758 -52.02978516 356.47241211 C-69.036028 356.0789377 -85.29484805 352.41172818 -97.97265625 340.23828125 C-116.0859663 320.24034935 -115.46003105 289.74374603 -115.40405273 264.40551758 C-115.40977218 262.02918683 -115.41674244 259.65285883 -115.42485046 257.27653503 C-115.44261765 250.89242772 -115.44164546 244.50845907 -115.43590808 238.12433457 C-115.43358118 234.1229227 -115.43583102 230.12153138 -115.44038582 226.12012291 C-115.44113424 225.45140128 -115.44188266 224.78267965 -115.44265376 224.09369373 C-115.44418555 222.73432837 -115.4457239 221.37496301 -115.44726873 220.01559766 C-115.46092208 207.33622615 -115.45560543 194.65691674 -115.44408352 181.97754671 C-115.43414415 170.42310373 -115.44711674 158.86882072 -115.47101771 147.31440238 C-115.49549734 135.38857673 -115.50499582 123.46282532 -115.49836498 111.53697509 C-115.49489422 104.86602488 -115.49730604 98.19517959 -115.51461601 91.52424049 C-115.53018506 85.25223641 -115.5260198 78.98053629 -115.50731087 72.70854378 C-115.50365325 70.4218374 -115.50664968 68.13510798 -115.51719666 65.848423 C-115.61735603 42.3174726 -113.01767621 20.04002787 -96.5 1.9375 C-71.40849409 -21.87091754 -26.64621505 -19.77238112 0 0 Z M-54 30 C-57.96139821 37.28438926 -58.15137309 45.49530139 -58.11352539 53.59741211 C-58.11367142 54.42748779 -58.11381744 55.25756348 -58.1139679 56.11279297 C-58.11327574 58.83433723 -58.1055162 61.55581156 -58.09765625 64.27734375 C-58.09578959 66.17305972 -58.09436686 68.06877617 -58.09336853 69.9644928 C-58.08956287 74.93748319 -58.07974935 79.91044407 -58.06866455 84.88342285 C-58.05840838 89.96459555 -58.05386192 95.04577305 -58.04882812 100.12695312 C-58.03812523 110.08465043 -58.02054434 120.04231813 -58 130 C-51.4 130 -44.8 130 -38 130 C-37.95470686 118.82931905 -37.91805949 107.65869969 -37.89637566 96.48794746 C-37.88596536 91.30019833 -37.87185669 86.11251561 -37.84912109 80.92480469 C-37.82729422 75.91273221 -37.81541069 70.90072338 -37.81024551 65.88860703 C-37.80656737 63.98217645 -37.79938513 62.07574913 -37.78853989 60.16934586 C-37.13178326 44.5040436 -37.13178326 44.5040436 -41.8125 29.9375 C-46.15715229 26.0893794 -49.63264031 26.2072929 -54 30 Z " fill="#FEFEFE" transform="translate(345,100)"/>
  <path d="M0 0 C1.17626953 0.00757324 2.35253906 0.01514648 3.56445312 0.02294922 C20.80439844 0.34791792 35.59332856 4.69161185 48.3359375 16.84765625 C67.74697972 38.22559809 66.00143943 68.79686875 65.91963124 95.75201476 C65.91087268 99.38293429 65.91392553 103.01384825 65.91543579 106.64477539 C65.91647692 112.91305455 65.91028192 119.1812916 65.89896011 125.44956017 C65.88260213 134.5120582 65.87748666 143.57453619 65.87498413 152.63704739 C65.87062305 167.34568957 65.85735735 182.05430939 65.83837891 196.76293945 C65.8199788 211.03832895 65.80584259 225.31371234 65.79736328 239.58911133 C65.79683783 240.47125727 65.79631239 241.35340321 65.79577102 242.26228084 C65.79316066 246.68840791 65.79063331 251.11453503 65.78814721 255.54066217 C65.7674642 292.17295787 65.73172607 328.80522571 65.6875 365.4375 C48.1975 365.4375 30.7075 365.4375 12.6875 365.4375 C12.1925 358.0125 12.1925 358.0125 11.6875 350.4375 C10.718125 351.96375 9.74875 353.49 8.75 355.0625 C3.13061347 363.00831255 -3.43088073 367.00408545 -12.94140625 369.02734375 C-24.9185977 370.48459184 -36.54889993 368.84570276 -46.6171875 361.83203125 C-59.55160945 351.16723429 -64.26006384 336.76787047 -65.84667969 320.53564453 C-66.65068715 310.50317118 -66.49813074 300.42494826 -66.515625 290.3671875 C-66.51845238 289.26430515 -66.52127975 288.16142281 -66.52419281 287.02511978 C-66.53911522 281.18829363 -66.54838852 275.35149175 -66.55273438 269.51464844 C-66.55820866 263.53723746 -66.58223508 257.56005541 -66.61070633 251.58271599 C-66.62947699 246.93939597 -66.63454593 242.29612954 -66.63607025 237.65277481 C-66.63906485 235.45151646 -66.64698284 233.25025831 -66.66025543 231.04903793 C-66.79902932 206.26575375 -64.69519263 180.30587365 -46.75 161.375 C-35.40343029 150.58151272 -6.75016316 127.4375 9.6875 127.4375 C9.60308873 117.48417065 9.50820217 107.53100142 9.39997292 97.57790089 C9.35004519 92.95617991 9.3037148 88.33448139 9.265625 83.71264648 C9.22872773 79.25161395 9.18235564 74.79077098 9.12943649 70.32990074 C9.11091616 68.62871313 9.09579948 66.92748492 9.08415604 65.22623634 C9.06725311 62.84178924 9.03820864 60.45777403 9.00634766 58.07348633 C9.00418747 57.37145584 9.00202728 56.66942535 8.99980164 55.94612122 C8.91306928 50.85907503 8.35104559 47.10104559 4.6875 43.4375 C2.47677023 43.19496187 2.47677023 43.19496187 0.0625 43.3125 C-0.75476562 43.33054688 -1.57203125 43.34859375 -2.4140625 43.3671875 C-3.04054688 43.39039063 -3.66703125 43.41359375 -4.3125 43.4375 C-4.96878849 44.64018681 -5.61197505 45.85002554 -6.25 47.0625 C-6.60964844 47.73539063 -6.96929688 48.40828125 -7.33984375 49.1015625 C-9.86655637 55.16973177 -9.52067448 61.83989037 -9.62890625 68.3046875 C-9.64755737 69.22258057 -9.6662085 70.14047363 -9.6854248 71.08618164 C-9.753407 74.49486225 -9.81375638 77.90369166 -9.875 81.3125 C-10.019375 88.94375 -10.16375 96.575 -10.3125 104.4375 C-28.7925 104.4375 -47.2725 104.4375 -66.3125 104.4375 C-66.374375 97.3425 -66.43625 90.2475 -66.5 82.9375 C-66.52731201 80.73384766 -66.55462402 78.53019531 -66.58276367 76.25976562 C-66.74319876 54.15031775 -63.73651554 33.43641502 -48.3125 16.4375 C-35.34302197 3.65968914 -17.71428735 -0.16117852 0 0 Z M0.94140625 182.09375 C-8.86208597 192.28802267 -10.46430986 206.15675305 -10.45776367 219.63623047 C-10.46112228 220.63716736 -10.4644809 221.63810425 -10.46794128 222.66937256 C-10.47740775 225.96449031 -10.47939216 229.25955702 -10.48046875 232.5546875 C-10.48368406 234.85482809 -10.48704834 237.15496848 -10.49055481 239.45510864 C-10.49653512 244.2716723 -10.49839581 249.08821805 -10.49780273 253.90478516 C-10.49770112 260.0636557 -10.51135801 266.22241096 -10.52857494 272.3812542 C-10.53971562 277.13059004 -10.54172131 281.87989818 -10.54119301 286.62924576 C-10.54236982 288.899338 -10.54677476 291.16943103 -10.55452538 293.43951035 C-10.56436797 296.61974833 -10.56143043 299.79973813 -10.55541992 302.97998047 C-10.56103943 303.90910248 -10.56665894 304.83822449 -10.57244873 305.79550171 C-10.5335374 313.93427509 -9.97908878 322.14129024 -4.3125 328.4375 C-0.5967739 329.81070313 1.17584543 329.60477169 4.9375 328.375 C8.3779198 325.95106787 8.64983397 324.45654073 9.6875 320.4375 C9.97827271 317.41814024 9.97827271 317.41814024 9.92800903 314.24917603 C9.93075836 313.02928986 9.93350769 311.80940369 9.93634033 310.55255127 C9.92926355 309.2142324 9.92199396 307.87591454 9.91455078 306.53759766 C9.91398619 305.11801156 9.91430416 303.69842487 9.91543579 302.27883911 C9.91600844 298.43629025 9.90426833 294.59386684 9.89028788 290.75134706 C9.87776593 286.7314852 9.87660886 282.7116203 9.87423706 278.69174194 C9.86802659 271.08456432 9.85162164 263.47744434 9.83153808 255.87029207 C9.80916559 247.20768982 9.79818226 238.54508479 9.78814721 229.88246083 C9.76725503 212.06744124 9.73208748 194.25247526 9.6875 176.4375 C5.99183026 176.4375 3.5558806 179.71008799 0.94140625 182.09375 Z " fill="#FEFEFE" transform="translate(1871.3125,85.5625)"/>
  <path d="M0 0 C38.28 0 76.56 0 116 0 C116 16.5 116 33 116 50 C107.09 50 98.18 50 89 50 C89 169.79 89 289.58 89 413 C68.54 413 48.08 413 27 413 C27 293.21 27 173.42 27 50 C18.09 50 9.18 50 0 50 C0 33.5 0 17 0 0 Z " fill="#FEFEFE" transform="translate(38,38)"/>
  <path d="M0 0 C19.14 0 38.28 0 58 0 C58 118.14 58 236.28 58 358 C38.86 358 19.72 358 0 358 C0 239.86 0 121.72 0 0 Z " fill="#FEFEFE" transform="translate(157,93)"/>
  <path d="M0 0 C19.14 0 38.28 0 58 0 C58.02258347 45.46266734 58.04049721 90.92533333 58.05106533 136.38800516 C58.05231611 141.74931139 58.05361042 147.11061761 58.05493164 152.47192383 C58.05519395 153.53931099 58.05545626 154.60669815 58.05572652 155.70643038 C58.06008365 173.01341463 58.06797143 190.32039558 58.0771528 207.62737786 C58.08648814 225.3719672 58.09205536 243.11655481 58.09408849 260.86114651 C58.09546397 271.81982038 58.09981588 282.77848492 58.10791647 293.73715592 C58.11318246 301.24114303 58.11480463 308.74512527 58.11350138 316.24911409 C58.11285777 320.58533996 58.1138781 324.92154945 58.11920547 329.25777245 C58.12403912 333.22082257 58.12433888 337.18384515 58.12089889 341.14689649 C58.12047317 342.58701298 58.12176919 344.02713113 58.12488318 345.46724432 C58.12884671 347.41200923 58.12615656 349.35678441 58.12304783 351.30155087 C58.12361741 352.92770318 58.12361741 352.92770318 58.1241985 354.58670706 C58 357 58 357 57 358 C38.19 358 19.38 358 0 358 C0 239.86 0 121.72 0 0 Z " fill="#FEFEFE" transform="translate(1004,93)"/>
  <path d="M0 0 C18.81 0 37.62 0 57 0 C57 118.14 57 236.28 57 358 C38.19 358 19.38 358 0 358 C0 239.86 0 121.72 0 0 Z " fill="#FEFEFE" transform="translate(1290,93)"/>
  <path d="M0 0 C18.81 0 37.62 0 57 0 C57 16.83 57 33.66 57 51 C38.19 51 19.38 51 0 51 C0 34.17 0 17.34 0 0 Z " fill="#FEFEFE" transform="translate(1290,37)"/>
  <path d="M0 0 C19.14 0 38.28 0 58 0 C58 16.5 58 33 58 50 C38.86 50 19.72 50 0 50 C0 33.5 0 17 0 0 Z " fill="#FEFEFE" transform="translate(157,38)"/>
  <path d="M0 0 C7.40784828 -0.02094585 14.81558988 -0.0409839 22.22344208 -0.05175018 C25.67281862 -0.05703976 29.12217075 -0.06411301 32.5715332 -0.07543945 C36.52555043 -0.08834235 40.47955756 -0.09322918 44.43359375 -0.09765625 C46.29605995 -0.10539818 46.29605995 -0.10539818 48.19615173 -0.11329651 C49.33725906 -0.11337204 50.47836639 -0.11344757 51.65405273 -0.11352539 C52.664431 -0.115746 53.67480927 -0.11796661 54.71580505 -0.12025452 C57 0 57 0 58 1 C58.09831146 2.49870048 58.12798456 4.00198539 58.12939453 5.50390625 C58.13254669 6.46159912 58.13569885 7.41929199 58.13894653 8.40600586 C58.1369223 9.44764893 58.13489807 10.48929199 58.1328125 11.5625 C58.13376923 12.62412354 58.13472595 13.68574707 58.13571167 14.77954102 C58.13639364 17.02913472 58.13453819 19.27873037 58.13037109 21.52832031 C58.1250231 24.98507071 58.13031554 28.44169117 58.13671875 31.8984375 C58.13605797 34.07812529 58.13477682 36.257813 58.1328125 38.4375 C58.13483673 39.47914307 58.13686096 40.52078613 58.13894653 41.59399414 C58.13421829 43.03053345 58.13421829 43.03053345 58.12939453 44.49609375 C58.12859894 45.34357178 58.12780334 46.1910498 58.12698364 47.06420898 C58 49 58 49 57 50 C55.22008076 50.09370624 53.43643261 50.11744271 51.65405273 50.11352539 C50.5129454 50.11344986 49.37183807 50.11337433 48.19615173 50.11329651 C46.9545076 50.10813522 45.71286346 50.10297394 44.43359375 50.09765625 C42.53795433 50.09553383 42.53795433 50.09553383 40.60401917 50.09336853 C37.23875111 50.08870582 33.8735501 50.0797148 30.50830078 50.06866455 C27.07650341 50.05844846 23.64469892 50.05381578 20.21289062 50.04882812 C13.47522246 50.03862263 6.73767229 50.01905091 0 50 C0 33.5 0 17 0 0 Z " fill="#FEFEFE" transform="translate(1004,38)"/>
  <path d="M0 0 C2.547083 0.01801952 5.07173202 -0.08097242 7.61621094 -0.18896484 C19.2928162 -0.3833937 19.2928162 -0.3833937 23.8503418 3.90966797 C25.59931875 6.72456424 27.05259765 9.50936403 28.35522461 12.55487061 C29.70517844 15.56825332 31.44023101 18.34503501 33.13574219 21.17431641 C34.42285603 23.41277526 35.70801523 25.65235918 36.99121094 27.89306641 C38.28902467 30.15369171 39.58718821 32.41411623 40.88574219 34.67431641 C41.44753174 35.65464844 42.00932129 36.63498047 42.58813477 37.64501953 C43.65605091 39.49006392 44.75559165 41.31713237 45.88452148 43.12548828 C47.17871094 45.39306641 47.17871094 45.39306641 47.17871094 47.39306641 C18.49065756 49.94464218 18.49065756 49.94464218 11.55224609 45.83886719 C7.3983696 41.69728936 5.20909013 36.82905255 3.17871094 31.39306641 C2.84871094 31.06306641 2.51871094 30.73306641 2.17871094 30.39306641 C1.8507251 30.87251709 1.52273926 31.35196777 1.18481445 31.84594727 C-0.29528613 34.00824276 -1.77701548 36.16941708 -3.25878906 38.33056641 C-3.77505859 39.0853125 -4.29132813 39.84005859 -4.82324219 40.61767578 C-5.5628418 41.6956543 -5.5628418 41.6956543 -6.31738281 42.79541016 C-6.77298584 43.46048584 -7.22858887 44.12556152 -7.69799805 44.81079102 C-8.82128906 46.39306641 -8.82128906 46.39306641 -9.82128906 47.39306641 C-12.26959333 47.48150434 -14.68949505 47.50835392 -17.13769531 47.49072266 C-17.86874985 47.48930771 -18.59980438 47.48789276 -19.35301208 47.48643494 C-21.69664538 47.48082049 -24.04018446 47.46826562 -26.38378906 47.45556641 C-27.96907414 47.45055326 -29.55436072 47.44599004 -31.13964844 47.44189453 C-35.03356516 47.43084637 -38.92741112 47.41357212 -42.82128906 47.39306641 C-38.44528848 39.27872268 -33.92415247 31.25566168 -29.32128906 23.26806641 C-28.68320312 22.15302734 -28.04511719 21.03798828 -27.38769531 19.88916016 C-26.13245334 17.70981367 -24.85513898 15.5430049 -23.55419922 13.390625 C-21.79507983 10.49331275 -21.79507983 10.49331275 -20.66259766 7.63378906 C-16.62373372 -0.91760129 -8.3494542 -0.10786993 0 0 Z " fill="#FEFEFE" transform="translate(295.8212890625,35.60693359375)"/>
  <path d="M0 0 C1.73409008 -0.05659035 3.46755698 -0.13830514 5.19921875 -0.24609375 C16.52374866 -0.93781707 16.52374866 -0.93781707 21.5559082 0.78955078 C25.09134745 4.04652572 26.87856896 7.54196816 28.73745728 11.94329834 C30.07681754 14.96461222 31.81456836 17.74011362 33.51293945 20.57080078 C34.8000533 22.80925964 36.0852125 25.04884356 37.3684082 27.28955078 C38.66622194 29.55017608 39.96438548 31.81060061 41.26293945 34.07080078 C41.824729 35.05113281 42.38651855 36.03146484 42.96533203 37.04150391 C44.03324818 38.88654829 45.13278891 40.71361675 46.26171875 42.52197266 C47.5559082 44.78955078 47.5559082 44.78955078 47.5559082 46.78955078 C43.00326611 47.08826047 38.45640426 47.3047556 33.89624023 47.44873047 C32.34933123 47.50876074 30.80309447 47.59043171 29.25854492 47.69482422 C24.13169512 48.03242182 19.55592818 48.08788408 14.5559082 46.78955078 C10.8033471 43.2562952 8.83722413 39.3536265 6.5559082 34.78955078 C5.2638374 33.0906957 3.94209102 31.4125273 2.5559082 29.78955078 C1.85723633 30.84916016 1.15856445 31.90876953 0.4387207 33.00048828 C-0.48042781 34.38859012 -1.39970536 35.77660652 -2.3190918 37.16455078 C-2.77928711 37.86322266 -3.23948242 38.56189453 -3.71362305 39.28173828 C-4.38071289 40.28720703 -4.38071289 40.28720703 -5.0612793 41.31298828 C-5.67398682 42.23990479 -5.67398682 42.23990479 -6.29907227 43.18554688 C-7.4440918 44.78955078 -7.4440918 44.78955078 -9.4440918 46.78955078 C-11.95330025 46.96450684 -14.35034121 47.02124647 -16.8581543 46.98486328 C-17.58779388 46.98203339 -18.31743347 46.97920349 -19.06918335 46.97628784 C-21.40265207 46.9650808 -23.73573883 46.93997589 -26.0690918 46.91455078 C-27.64981543 46.90452163 -29.23054506 46.89539567 -30.8112793 46.88720703 C-34.68903094 46.86513983 -38.56649658 46.83060693 -42.4440918 46.78955078 C-41.66485352 45.43132202 -41.66485352 45.43132202 -40.86987305 44.0456543 C-37.00577348 37.3022181 -33.18207077 30.5413984 -29.4440918 23.72705078 C-16.58342328 0.42757674 -16.58342328 0.42757674 0 0 Z " fill="#FEFEFE" transform="translate(1425.444091796875,36.21044921875)"/>
  <path d="M0 0 C17.16 0 34.32 0 52 0 C52 14.85 52 29.7 52 45 C34.84 45 17.68 45 0 45 C0 30.15 0 15.3 0 0 Z " fill="#FEFEFE" transform="translate(1405,468)"/>
  <path d="M0 0 C16.17 0 32.34 0 49 0 C45.62704858 5.62158571 45.62704858 5.62158571 43.46875 8.27734375 C42.75525391 9.16123779 42.75525391 9.16123779 42.02734375 10.06298828 C41.52332031 10.68157715 41.01929688 11.30016602 40.5 11.9375 C39.42652964 13.26648004 38.35362663 14.59591851 37.28125 15.92578125 C36.73726562 16.59947754 36.19328125 17.27317383 35.6328125 17.96728516 C32.60737012 21.73370759 29.63275806 25.53991582 26.65429688 29.34350586 C25.43754274 30.89672502 24.2188242 32.44840471 23 34 C22.46600586 34.8772876 21.93201172 35.7545752 21.38183594 36.65844727 C18.5542336 39.4382273 16.79682267 39.56846717 12.90557861 39.56648254 C12.11689392 39.54067612 11.32820923 39.51486969 10.515625 39.48828125 C9.29223419 39.47766914 9.29223419 39.47766914 8.04412842 39.46684265 C5.44514319 39.43890544 2.84833128 39.37617281 0.25 39.3125 C-1.51429175 39.28741605 -3.27861735 39.26460304 -5.04296875 39.24414062 C-9.36281356 39.18908154 -13.68103863 39.10281735 -18 39 C-17.37125816 34.17964589 -15.36556555 30.345638 -13.18359375 26.07421875 C-12.85041138 25.41087524 -12.517229 24.74753174 -12.1739502 24.06408691 C-10.93504713 21.60190253 -9.68565715 19.14500615 -8.4375 16.6875 C-5.653125 11.180625 -2.86875 5.67375 0 0 Z " fill="#FEFEFE" transform="translate(921,38)"/>
  <path d="M0 0 C15.18 0 30.36 0 46 0 C43.80148851 3.66418581 41.81927883 6.58444895 39.125 9.8125 C38.34125 10.75867187 37.5575 11.70484375 36.75 12.6796875 C36.316875 13.20143555 35.88375 13.72318359 35.4375 14.26074219 C32.64704459 17.63696575 29.88762718 21.03850261 27.125 24.4375 C26.56570801 25.12368408 26.00641602 25.80986816 25.43017578 26.5168457 C24.8989209 27.16999756 24.36766602 27.82314941 23.8203125 28.49609375 C23.11285889 29.36512329 23.11285889 29.36512329 22.39111328 30.25170898 C20.91681077 31.9952369 20.91681077 31.9952369 19.83422852 34.19458008 C17.41828886 36.57257472 15.4641265 36.45456674 12.17134094 36.45318604 C11.01338264 36.42221832 11.01338264 36.42221832 9.83203125 36.390625 C9.03721848 36.38496521 8.2424057 36.37930542 7.42350769 36.37347412 C4.88589134 36.35109004 2.3496892 36.30089262 -0.1875 36.25 C-1.90818273 36.2299375 -3.62888759 36.21168629 -5.34960938 36.1953125 C-9.56695082 36.15121894 -13.78323569 36.08217965 -18 36 C-16.69287863 33.18489937 -15.3793341 30.37305637 -14.0625 27.5625 C-13.70865234 26.79873047 -13.35480469 26.03496094 -12.99023438 25.24804688 C-8.94954743 16.6486362 -4.46540028 8.43464498 0 0 Z " fill="#FEFEFE" transform="translate(360,37)"/>
  <path d="M0 0 C3.96 0 7.92 0 12 0 C10.68 1.32 9.36 2.64 8 4 C3.86311856 3.89910045 3.02540145 3.02540145 0 0 Z " fill="#353333" transform="translate(1724,484)"/>
  <path d="M0 0 C1.98 0 3.96 0 6 0 C6 2.64 6 5.28 6 8 C1.125 3.375 1.125 3.375 0 0 Z " fill="#4F4D4F" transform="translate(1197,483)"/>
  <path d="M0 0 C1.65 0 3.3 0 5 0 C7.125 4.625 7.125 4.625 6 8 C4.02 5.36 2.04 2.72 0 0 Z " fill="#3A383A" transform="translate(920,483)"/>
  <path d="M0 0 C1.65 0 3.3 0 5 0 C5.33 1.65 5.66 3.3 6 5 C4.125 4.75 4.125 4.75 2 4 C0.75 1.9375 0.75 1.9375 0 0 Z " fill="#403E3E" transform="translate(979,475)"/>
  <path d="M0 0 C1.65 0 3.3 0 5 0 C5 1.32 5 2.64 5 4 C3.68 4 2.36 4 1 4 C0.67 2.68 0.34 1.36 0 0 Z " fill="#353334" transform="translate(273,492)"/>
  <path d="M0 0 C0.94875 0.04125 1.8975 0.0825 2.875 0.125 C3.205 0.785 3.535 1.445 3.875 2.125 C0.905 2.125 -2.065 2.125 -5.125 2.125 C-3.125 0.125 -3.125 0.125 0 0 Z " fill="#545454" transform="translate(1063.125,479.875)"/>
  <path d="M0 0 C0.78375 0.04125 1.5675 0.0825 2.375 0.125 C1.125 1.6875 1.125 1.6875 -0.625 3.125 C-2.8125 2.8125 -2.8125 2.8125 -4.625 2.125 C-2.625 0.125 -2.625 0.125 0 0 Z " fill="#4A4949" transform="translate(1065.625,475.875)"/>
  <path d="M0 0 C1.32 0.33 2.64 0.66 4 1 C3.01 1.495 3.01 1.495 2 2 C1.34 1.34 0.68 0.68 0 0 Z " fill="#222222" transform="translate(1060,483)"/>
  <path d="M0 0 C1.32 0.33 2.64 0.66 4 1 C2.68 1.33 1.36 1.66 0 2 C0 1.34 0 0.68 0 0 Z " fill="#1F1F1F" transform="translate(947,483)"/>
  <path d="" fill="#333333" transform="translate(0,0)"/>
  <path d="M0 0 C2 1 2 1 2 1 Z " fill="#232323" transform="translate(825,483)"/>
  <path d="" fill="#FFFFFF" transform="translate(0,0)"/>
</svg>