<svg width="16" height="16" viewBox="0 0 16 16" fill="none" xmlns="http://www.w3.org/2000/svg">
<g clip-path="url(#clip0_6416_461)">
<path d="M3.59033 13.0002C2.2063 11.7786 1.33337 9.9913 1.33337 8.00016C1.33337 4.31826 4.31814 1.3335 8.00004 1.3335C11.6819 1.3335 14.6667 4.31826 14.6667 8.00016C14.6667 9.9913 13.7938 11.7786 12.4098 13.0002" stroke="#202939" stroke-width="1.5" stroke-miterlimit="10" stroke-linecap="square"/>
<path d="M4.38291 9.71C4.13735 9.19153 4 8.6118 4 8C4 5.79086 5.79086 4 8 4C10.2091 4 12 5.79086 12 8C12 8.6118 11.8627 9.19153 11.6171 9.71" stroke="#202939" stroke-width="1.5" stroke-miterlimit="10" stroke-linecap="square"/>
<path d="M8.00008 9.33366C8.73648 9.33366 9.33341 8.73673 9.33341 8.00033C9.33341 7.26393 8.73648 6.66699 8.00008 6.66699C7.26368 6.66699 6.66675 7.26393 6.66675 8.00033C6.66675 8.73673 7.26368 9.33366 8.00008 9.33366Z" stroke="#202939" stroke-width="1.5" stroke-miterlimit="10" stroke-linecap="square"/>
<path d="M6.7871 11.3335H9.2131C9.6251 11.3335 9.93843 11.7034 9.87069 12.1098L9.4263 14.7764C9.3727 15.0979 9.09456 15.3335 8.7687 15.3335H7.2315C6.90563 15.3335 6.6275 15.0979 6.57392 14.7764L6.12948 12.1098C6.06175 11.7034 6.37511 11.3335 6.7871 11.3335Z" stroke="#202939" stroke-width="1.5" stroke-miterlimit="10" stroke-linecap="square"/>
</g>
<defs>
<clipPath id="clip0_6416_461">
<rect width="16" height="16" fill="white"/>
</clipPath>
</defs>
</svg>
