<svg width="24" height="24" viewBox="0 0 21 21" fill="none" xmlns="http://www.w3.org/2000/svg">
<path d="M19 5.5H2C1.44772 5.5 1 5.94772 1 6.5V18.5C1 19.0523 1.44772 19.5 2 19.5H19C19.5523 19.5 20 19.0523 20 18.5V6.5C20 5.94772 19.5523 5.5 19 5.5Z" stroke="#2657AF" stroke-width="2"/>
<path d="M7.5 16C9.15685 16 10.5 14.6569 10.5 13C10.5 11.3431 9.15685 10 7.5 10C5.84315 10 4.5 11.3431 4.5 13C4.5 14.6569 5.84315 16 7.5 16Z" stroke="#2657AF" stroke-width="2"/>
<path d="M13.5 11H16.5M13.5 15H16.5M2 5.5L11 1" stroke="#2657AF" stroke-width="2" stroke-linecap="round" stroke-linejoin="round"/>
</svg>
