<svg width="16" height="16" viewBox="0 0 16 16" fill="none" xmlns="http://www.w3.org/2000/svg">
<path d="M13.6666 4.3335H2.33329C1.9651 4.3335 1.66663 4.63197 1.66663 5.00016V13.0002C1.66663 13.3684 1.9651 13.6668 2.33329 13.6668H13.6666C14.0348 13.6668 14.3333 13.3684 14.3333 13.0002V5.00016C14.3333 4.63197 14.0348 4.3335 13.6666 4.3335Z" stroke="#202939" stroke-width="1.5"/>
<path d="M6 11.3335C7.10457 11.3335 8 10.4381 8 9.3335C8 8.22893 7.10457 7.3335 6 7.3335C4.89543 7.3335 4 8.22893 4 9.3335C4 10.4381 4.89543 11.3335 6 11.3335Z" stroke="#202939" stroke-width="1.5"/>
<path d="M9.99992 8.00016H11.9999M9.99992 10.6668H11.9999M2.33325 4.3335L8.33325 1.3335" stroke="#202939" stroke-width="1.5" stroke-linecap="round" stroke-linejoin="round"/>
</svg>
