<svg width="73" height="19" viewBox="0 0 73 19" fill="none" xmlns="http://www.w3.org/2000/svg">
<path d="M9.55014 1.54369L13.7648 8.84183C13.9347 9.13987 14.3747 9.13987 14.5445 8.84183L16.5669 5.34178C16.6132 5.25772 16.6132 5.15073 16.5669 5.06667L14.0273 0.664857C13.8575 0.366818 14.0736 0 14.4133 0H22.4953C22.5802 0 22.6342 0.0917046 22.5956 0.168125L11.9431 18.6389C11.6652 19.1204 10.955 19.1204 10.6771 18.6389L0.0168858 0.168125C-0.0294296 0.0917046 0.0246051 0 0.117236 0H6.87928C7.98313 0.00764203 9.00207 0.588436 9.55014 1.54369Z" fill="url(#paint0_linear_139_1262)"/>
<path d="M43.7308 1.54369L47.9455 8.84183C48.1153 9.13987 48.5553 9.13987 48.7251 8.84183L50.7476 5.34178C50.7939 5.25772 50.7939 5.15073 50.7476 5.06667L48.208 0.664857C48.0381 0.366818 48.2543 0 48.5939 0H56.676C56.7609 0 56.8149 0.0917046 56.7763 0.168125L46.116 18.6389C45.8382 19.1204 45.128 19.1204 44.8501 18.6389L34.1975 0.168125C34.1512 0.0917046 34.2053 0 34.2979 0H41.0599C42.1638 0.00764203 43.1827 0.588436 43.7308 1.54369Z" fill="url(#paint1_linear_139_1262)"/>
<path d="M36.9923 7.95535L33.5726 9.88879C33.8737 9.72066 33.8737 9.28507 33.5726 9.11694L22.6885 2.95747C22.2099 2.69 21.6078 2.7817 21.2373 3.17909C22.9973 1.23037 25.5524 0 28.393 0C32.6618 0 36.2898 2.76642 37.5249 6.58743V6.59507C37.7024 7.11473 37.4708 7.68024 36.9923 7.95535Z" fill="url(#paint2_linear_139_1262)"/>
<path d="M26.2083 14.0538L22.8119 15.972C22.3564 16.2318 22.3178 16.8737 22.7424 17.1794C20.3494 15.4523 18.7979 12.6553 18.7979 9.49916C18.7979 7.06899 19.7164 4.86045 21.2294 3.1792C21.5999 2.77417 22.202 2.69011 22.6806 2.95758L26.2083 4.95215C25.9073 4.78403 25.5367 4.998 25.5367 5.33425V13.6641C25.5445 14.008 25.915 14.2219 26.2083 14.0538Z" fill="url(#paint3_linear_139_1262)"/>
<path d="M37.9878 9.49887C37.9878 14.7413 33.6959 18.9979 28.3928 18.9979C26.2777 18.9979 24.3325 18.3254 22.7423 17.1791C22.3177 16.8734 22.3563 16.2315 22.8118 15.9717L36.9843 7.95518C37.4629 7.68771 37.6867 7.1222 37.5246 6.60254C37.8334 7.51194 37.9878 8.49012 37.9878 9.49887Z" fill="url(#paint4_linear_139_1262)"/>
<path d="M25.5444 13.6644V5.33458C25.5444 4.99069 25.915 4.77671 26.216 4.95248L33.5802 9.11738C33.8812 9.28551 33.8812 9.7211 33.5802 9.88923L26.216 14.0541C25.915 14.2223 25.5444 14.0083 25.5444 13.6644Z" fill="white"/>
<path d="M26.2699 5.62475L32.9548 9.40755C33.032 9.45341 33.032 9.56039 32.9548 9.5986L26.2699 13.3814C26.1927 13.4273 26.1001 13.3738 26.1001 13.2821V5.71645C26.1001 5.63239 26.1927 5.5789 26.2699 5.62475Z" fill="#EF4135"/>
<path d="M72.5578 4.50837L71.7582 7.13238C71.7069 7.30171 71.5272 7.43854 71.3597 7.43854H67.0939C66.9385 7.43854 66.7737 7.56452 66.7265 7.72031L65.6283 11.3251C65.577 11.4944 65.3974 11.6313 65.2299 11.6313H62.3153C62.1464 11.6313 62.0519 11.4944 62.1032 11.3251L63.2014 7.72031C63.2486 7.56452 63.1608 7.43854 63.0055 7.43854H58.5084C58.2404 7.43854 58.1985 7.15448 58.3244 6.94529L59.5157 4.50837C59.5671 4.33903 59.7467 4.20221 59.9142 4.20221H63.9915C64.1469 4.20221 64.3116 4.07623 64.3589 3.92044L65.4598 0.306157C65.5111 0.136823 65.6907 0 65.8582 0L68.7728 0C68.9416 0 69.0362 0.136823 68.9849 0.306157L67.884 3.91908C67.8367 4.07487 67.9245 4.20086 68.0799 4.20086H72.3457C72.5146 4.20086 72.6091 4.33768 72.5578 4.50701V4.50837Z" fill="#CB3033"/>
<path d="M72.5578 4.50837L71.7582 7.13238C71.7069 7.30171 71.5272 7.43854 71.3597 7.43854H67.0939C66.9385 7.43854 66.7737 7.56452 66.7265 7.72031L65.6283 11.3251C65.577 11.4944 65.3974 11.6313 65.2299 11.6313H62.3153C62.1464 11.6313 62.0519 11.4944 62.1032 11.3251L63.2014 7.72031C63.2486 7.56452 63.1608 7.43854 63.0055 7.43854H58.5084C58.2404 7.43854 58.1985 7.15448 58.3244 6.94529L59.5157 4.50837C59.5671 4.33903 59.7467 4.20221 59.9142 4.20221H63.9915C64.1469 4.20221 64.3116 4.07623 64.3589 3.92044L65.4598 0.306157C65.5111 0.136823 65.6907 0 65.8582 0L68.7728 0C68.9416 0 69.0362 0.136823 68.9849 0.306157L67.884 3.91908C67.8367 4.07487 67.9245 4.20086 68.0799 4.20086H72.3457C72.5146 4.20086 72.6091 4.33768 72.5578 4.50701V4.50837Z" fill="url(#paint5_linear_139_1262)"/>
<path d="M52.4897 18.8859L54.2019 13.276H56.4054C56.8269 13.276 57.162 13.3575 57.4107 13.5196C57.6612 13.6801 57.8209 13.9045 57.8898 14.1911C57.9605 14.476 57.9404 14.8047 57.8278 15.1772C57.7135 15.5515 57.5329 15.8811 57.2859 16.1659C57.0407 16.4491 56.7431 16.67 56.3914 16.8286C56.0397 16.9873 55.6488 17.067 55.2186 17.067H53.8136L54.1024 16.1169H55.3163C55.5449 16.1169 55.7465 16.0774 55.9193 15.9994C56.0939 15.9188 56.2396 15.8083 56.3557 15.6681C56.4717 15.5261 56.5572 15.3621 56.6122 15.1781C56.6698 14.9896 56.682 14.8266 56.6506 14.6881C56.6192 14.5496 56.5407 14.4418 56.415 14.3646C56.2911 14.2857 56.1157 14.2472 55.8888 14.2472H55.0929L53.6722 18.8876H52.4897V18.8859ZM57.4622 18.8859L59.1744 13.276H60.3551L58.9431 17.9076H61.3377L61.0375 18.8859H57.4622ZM66.9812 13.276H68.1619L67.0519 16.9189C66.9271 17.3282 66.722 17.6859 66.4349 17.9927C66.1478 18.2995 65.8049 18.5388 65.4043 18.7106C65.0038 18.8806 64.5727 18.9656 64.1084 18.9656C63.6442 18.9656 63.2663 18.8806 62.9713 18.7106C62.6772 18.5388 62.4809 18.2995 62.3814 17.9927C62.2828 17.6859 62.295 17.3282 62.4198 16.9189L63.5316 13.276H64.7123L63.6302 16.8181C63.5674 17.032 63.5569 17.2213 63.5996 17.3878C63.6433 17.5544 63.7367 17.685 63.8772 17.7797C64.0185 17.8743 64.2027 17.9217 64.4296 17.9217C64.6564 17.9217 64.8729 17.8743 65.071 17.7797C65.2717 17.685 65.4436 17.5544 65.5867 17.3878C65.7316 17.2213 65.8354 17.032 65.8982 16.8181L66.9812 13.276ZM71.6622 14.9055C71.7032 14.6776 71.6622 14.5014 71.5374 14.3769C71.4152 14.2524 71.2119 14.1911 70.9283 14.1911C70.7354 14.1911 70.5644 14.2183 70.4152 14.2735C70.2659 14.3261 70.142 14.4006 70.0434 14.4952C69.9465 14.5882 69.8793 14.696 69.8427 14.8187C69.8087 14.9195 69.8026 15.0071 69.8252 15.0817C69.8497 15.1562 69.8942 15.221 69.9588 15.2762C70.026 15.3288 70.1071 15.3762 70.204 15.4156C70.3008 15.4542 70.4038 15.4866 70.5146 15.5138L70.978 15.6348C71.2049 15.6891 71.4056 15.7627 71.5802 15.8539C71.7564 15.9451 71.8987 16.0573 72.0078 16.1905C72.1186 16.3237 72.1875 16.4806 72.2146 16.6621C72.2416 16.8426 72.2207 17.0504 72.1491 17.2835C72.0427 17.6271 71.8655 17.9243 71.6177 18.1767C71.3699 18.4266 71.0636 18.6212 70.6988 18.7605C70.334 18.8973 69.9247 18.9656 69.4701 18.9656C69.0154 18.9656 68.648 18.8964 68.3565 18.757C68.0651 18.6185 67.867 18.4125 67.764 18.1408C67.6628 17.8673 67.668 17.5281 67.7806 17.1249C67.8932 16.7217 68.9692 16.9364 68.9229 17.1249C68.8767 17.3133 68.8819 17.4702 68.9386 17.5965C68.998 17.7209 69.0983 17.8147 69.2397 17.8787C69.3819 17.941 69.5547 17.9716 69.758 17.9716C69.9614 17.9716 70.1429 17.9427 70.3078 17.884C70.4745 17.8252 70.6141 17.7446 70.7267 17.6403C70.8393 17.536 70.9161 17.4168 70.9571 17.2818C70.9964 17.1556 70.992 17.0495 70.944 16.9645C70.896 16.8786 70.8096 16.8058 70.6857 16.7453C70.5635 16.6831 70.4082 16.6288 70.2206 16.5805L69.6586 16.4272C69.224 16.3123 68.9081 16.1326 68.7117 15.8872C68.5154 15.6426 68.4787 15.3131 68.6018 14.8985C68.7074 14.5584 68.8897 14.2621 69.1489 14.0079C69.4099 13.7519 69.7214 13.5538 70.0827 13.4136C70.4466 13.2707 70.8314 13.1997 71.239 13.1997C71.6465 13.1997 71.9929 13.2716 72.2582 13.4162C72.5235 13.5582 72.7042 13.7581 72.7993 14.0131C72.8944 14.2691 72.8927 14.5662 72.794 14.9063C72.6954 15.2464 71.6625 15.3484 71.6622 14.9063C71.6622 14.906 71.6622 14.9055 71.6622 14.9055Z" fill="#0A69B2"/>
<defs>
<linearGradient id="paint0_linear_139_1262" x1="0.0891378" y1="9.50233" x2="22.2552" y2="9.50233" gradientUnits="userSpaceOnUse">
<stop stop-color="#CE1628"/>
<stop offset="0.0957" stop-color="#D4212A"/>
<stop offset="0.3569" stop-color="#E23330"/>
<stop offset="0.6433" stop-color="#EB3D33"/>
<stop offset="1" stop-color="#EF4135"/>
</linearGradient>
<linearGradient id="paint1_linear_139_1262" x1="34.1811" y1="9.50233" x2="56.68" y2="9.50233" gradientUnits="userSpaceOnUse">
<stop stop-color="#CE1628"/>
<stop offset="0.0957" stop-color="#D4212A"/>
<stop offset="0.3569" stop-color="#E23330"/>
<stop offset="0.6433" stop-color="#EB3D33"/>
<stop offset="1" stop-color="#EF4135"/>
</linearGradient>
<linearGradient id="paint2_linear_139_1262" x1="23.4299" y1="0.0299567" x2="35.6864" y2="7.28888" gradientUnits="userSpaceOnUse">
<stop stop-color="#09446D"/>
<stop offset="0.2" stop-color="#0A4E7E"/>
<stop offset="0.5349" stop-color="#0D5D98"/>
<stop offset="0.8135" stop-color="#0D66AB"/>
<stop offset="1" stop-color="#086BB5"/>
</linearGradient>
<linearGradient id="paint3_linear_139_1262" x1="22.5079" y1="17.1309" x2="22.5079" y2="2.8227" gradientUnits="userSpaceOnUse">
<stop stop-color="#09446D"/>
<stop offset="0.2" stop-color="#0A4E7E"/>
<stop offset="0.5349" stop-color="#0D5D98"/>
<stop offset="0.8135" stop-color="#0D66AB"/>
<stop offset="1" stop-color="#086BB5"/>
</linearGradient>
<linearGradient id="paint4_linear_139_1262" x1="38.4226" y1="10.4418" x2="24.446" y2="18.4688" gradientUnits="userSpaceOnUse">
<stop stop-color="#09446D"/>
<stop offset="0.2" stop-color="#0A4E7E"/>
<stop offset="0.5349" stop-color="#0D5D98"/>
<stop offset="0.8135" stop-color="#0D66AB"/>
<stop offset="1" stop-color="#086BB5"/>
</linearGradient>
<linearGradient id="paint5_linear_139_1262" x1="59.1774" y1="5.81706" x2="71.542" y2="5.81706" gradientUnits="userSpaceOnUse">
<stop stop-color="#CE1628"/>
<stop offset="0.0957" stop-color="#D4212A"/>
<stop offset="0.3569" stop-color="#E23330"/>
<stop offset="0.6433" stop-color="#EB3D33"/>
<stop offset="1" stop-color="#EF4135"/>
</linearGradient>
</defs>
</svg>
