<svg width="77" height="20" viewBox="0 0 77 20" fill="none" xmlns="http://www.w3.org/2000/svg">
<path d="M71.4247 4.59116L70.6288 7.20567C70.5778 7.37439 70.399 7.51072 70.2323 7.51072H65.9864C65.8318 7.51072 65.6678 7.63625 65.6208 7.79147L64.5278 11.3832C64.4767 11.5519 64.2979 11.6883 64.1312 11.6883H61.2303C61.0623 11.6883 60.9682 11.5519 61.0192 11.3832L62.1122 7.79147C62.1593 7.63625 62.0719 7.51072 61.9173 7.51072H57.4413C57.1746 7.51072 57.1328 7.22769 57.2581 7.01926L58.4439 4.59116C58.495 4.42244 58.6738 4.28611 58.8405 4.28611H62.8987C63.0533 4.28611 63.2173 4.16058 63.2643 4.00536L64.36 0.40417C64.4111 0.235448 64.5899 0.0991211 64.7566 0.0991211L67.6575 0.0991211C67.8255 0.0991211 67.9196 0.235448 67.8685 0.40417L66.7729 4.00401C66.7258 4.15924 66.8132 4.28476 66.9678 4.28476H71.2136C71.3817 4.28476 71.4758 4.42109 71.4247 4.58981V4.59116Z" fill="white"/>
<path d="M52.2432 18.9165L53.9473 13.327H56.1404C56.5599 13.327 56.8935 13.4082 57.141 13.5698C57.3903 13.7296 57.5492 13.9532 57.6179 14.2388C57.6882 14.5226 57.6682 14.8501 57.5562 15.2213C57.4424 15.5942 57.2626 15.9226 57.0168 16.2065C56.7727 16.4886 56.4766 16.7087 56.1265 16.8667C55.7765 17.0248 55.3874 17.1043 54.9592 17.1043H53.5608L53.8483 16.1576H55.0564C55.284 16.1576 55.4847 16.1183 55.6566 16.0405C55.8303 15.9602 55.9754 15.8501 56.0909 15.7104C56.2064 15.5689 56.2916 15.4056 56.3463 15.2222C56.4036 15.0344 56.4158 14.872 56.3845 14.734C56.3532 14.596 56.275 14.4885 56.15 14.4117C56.0266 14.3331 55.8521 14.2947 55.6262 14.2947H54.8341L53.4201 18.9183H52.2432V18.9165ZM57.1923 18.9165L58.8964 13.327H60.0716L58.6662 17.9419H61.0496L60.7508 18.9165H57.1923ZM66.6666 13.327H67.8417L66.7369 16.9567C66.6127 17.3646 66.4086 17.7209 66.1229 18.0266C65.8371 18.3323 65.4957 18.5707 65.0971 18.7419C64.6984 18.9113 64.2693 18.996 63.8073 18.996C63.3452 18.996 62.9691 18.9113 62.6755 18.7419C62.3828 18.5707 62.1874 18.3323 62.0884 18.0266C61.9902 17.7209 62.0024 17.3646 62.1266 16.9567L63.2331 13.327H64.4083L63.3313 16.8563C63.2687 17.0694 63.2583 17.258 63.3009 17.424C63.3443 17.5899 63.4372 17.72 63.5771 17.8143C63.7178 17.9087 63.9011 17.9558 64.1269 17.9558C64.3527 17.9558 64.5681 17.9087 64.7653 17.8143C64.9651 17.72 65.1362 17.5899 65.2786 17.424C65.4228 17.258 65.5261 17.0694 65.5887 16.8563L66.6666 13.327ZM71.3256 14.9506C71.3664 14.7235 71.3256 14.5479 71.2014 14.4239C71.0798 14.2999 70.8774 14.2388 70.5951 14.2388C70.4031 14.2388 70.2329 14.2658 70.0844 14.3209C69.9359 14.3733 69.8125 14.4475 69.7144 14.5418C69.618 14.6344 69.5511 14.7418 69.5146 14.8641C69.4807 14.9645 69.4746 15.0519 69.4972 15.1261C69.5215 15.2003 69.5658 15.265 69.6301 15.32C69.697 15.3724 69.7778 15.4196 69.8742 15.4589C69.9706 15.4973 70.0731 15.5296 70.1834 15.5567L70.6446 15.6772C70.8704 15.7314 71.0702 15.8047 71.2439 15.8955C71.4194 15.9864 71.5609 16.0982 71.6695 16.2309C71.7798 16.3637 71.8484 16.52 71.8754 16.7008C71.9023 16.8807 71.8814 17.0877 71.8102 17.32C71.7043 17.6624 71.5279 17.9585 71.2813 18.21C71.0346 18.4589 70.7297 18.6528 70.3667 18.7917C70.0036 18.9279 69.5962 18.996 69.1437 18.996C68.6912 18.996 68.3255 18.927 68.0354 18.7882C67.7453 18.6502 67.5482 18.4449 67.4457 18.1742C67.3449 17.9017 67.3501 17.5637 67.4622 17.1619C67.5742 16.7602 68.6452 16.9742 68.5991 17.1619C68.5531 17.3497 68.5583 17.506 68.6148 17.6318C68.6738 17.7558 68.7737 17.8493 68.9144 17.913C69.056 17.975 69.228 18.0056 69.4304 18.0056C69.6327 18.0056 69.8134 17.9768 69.9775 17.9183C70.1434 17.8598 70.2824 17.7794 70.3945 17.6755C70.5065 17.5716 70.5829 17.4528 70.6238 17.3183C70.6628 17.1925 70.6585 17.0868 70.6107 17.0021C70.563 16.9165 70.477 16.844 70.3536 16.7838C70.232 16.7218 70.0774 16.6676 69.8907 16.6196L69.3313 16.4667C68.8988 16.3523 68.5844 16.1733 68.3889 15.9287C68.1935 15.6851 68.157 15.3567 68.2795 14.9436C68.3846 14.6047 68.5661 14.3095 68.8241 14.0562C69.0838 13.8012 69.3939 13.6038 69.7535 13.4641C70.1157 13.3217 70.4987 13.251 70.9043 13.251C71.3099 13.251 71.6547 13.3226 71.9188 13.4667C72.1828 13.6082 72.3626 13.8073 72.4573 14.0615C72.552 14.3165 72.5502 14.6126 72.4521 14.9514C72.3539 15.2903 71.3259 15.3918 71.3256 14.9514C71.3256 14.9511 71.3256 14.9506 71.3256 14.9506Z" fill="white"/>
<path d="M9.48454 1.54369L13.6703 8.84183C13.8389 9.13987 14.2759 9.13987 14.4446 8.84183L16.4531 5.34178C16.4991 5.25772 16.4991 5.15073 16.4531 5.06667L13.9309 0.672498C13.7623 0.374459 13.9769 0.00764184 14.3143 0.00764184H22.3408C22.4251 0.00764184 22.4788 0.0993464 22.4404 0.175767L11.8611 18.6389C11.5851 19.1204 10.8798 19.1204 10.6038 18.6389L0.0167698 0.168125C-0.0292274 0.0917042 0.024436 0 0.116431 0H6.83203C7.9283 0.00764203 8.94024 0.588436 9.48454 1.54369Z" fill="white"/>
<path d="M43.4308 1.54369L47.6166 8.84183C47.7852 9.13987 48.2222 9.13987 48.3909 8.84183L50.3994 5.34178C50.4454 5.25772 50.4454 5.15073 50.3994 5.06667L47.8772 0.672498C47.7086 0.374459 47.9232 0.00764184 48.2605 0.00764184H56.2871C56.3714 0.00764184 56.4251 0.0993464 56.3867 0.175767L45.7997 18.6389C45.5237 19.1204 44.8184 19.1204 44.5424 18.6389L33.9631 0.168125C33.9171 0.0917042 33.9707 0 34.0627 0H40.7783C41.8746 0.00764203 42.8865 0.588436 43.4308 1.54369Z" fill="white"/>
<path d="M36.4563 7.82899L33.1251 9.73171C33.4184 9.56625 33.4184 9.13758 33.1251 8.97212L22.5226 2.91049C22.0563 2.64726 21.4698 2.73751 21.1089 3.12859C22.8233 1.21082 25.3123 0 28.0795 0C32.2378 0 35.772 2.72247 36.9751 6.48279V6.49031C37.1481 7.00172 36.9225 7.55824 36.4563 7.82899Z" fill="white"/>
<path d="M25.7379 13.9949L22.4281 15.8869C21.9842 16.1432 21.9466 16.7764 22.3604 17.0779C20.0284 15.3744 18.6685 12.7522 18.6685 9.63897C18.6685 7.24189 19.5636 5.0634 21.038 3.40504C21.3991 3.00553 21.9858 2.92261 22.4522 3.18644L25.8899 5.15386C25.5966 4.98802 25.2355 5.19909 25.2355 5.53076L25.0835 13.6105C25.091 13.9497 25.452 14.1607 25.7379 13.9949Z" fill="white"/>
<path d="M37.5892 9.62428C37.5892 14.7985 33.3707 18.9998 28.1583 18.9998C26.0794 18.9998 24.1674 18.336 22.6044 17.2046C22.1871 16.9029 22.2251 16.2693 22.6727 16.0129L36.6028 8.10067C37.0732 7.83668 37.2933 7.27852 37.1339 6.76562C37.4374 7.6632 37.5892 8.62866 37.5892 9.62428Z" fill="white"/>
</svg>
